<?xml version="1.0" encoding="UTF-8"?>
<svg xmlns="http://www.w3.org/2000/svg" viewBox="0 0 900 1100" width="900" height="1100" role="img" aria-label="Moss agate bracelet placeholder">
  <defs><linearGradient id="gbys0zj" x1="0" y1="0" x2="1" y2="1"><stop offset="0%" stop-color="#3b4a2a"/><stop offset="50%" stop-color="#5f6f4a"/><stop offset="100%" stop-color="#c9d6b3"/></linearGradient></defs>
  <rect width="900" height="1100" fill="url(#gbys0zj)"/>
  <circle cx="722.9" cy="783.3" r="0.63" fill="black" fill-opacity="0.09"/><circle cx="431.4" cy="645.7" r="1.20" fill="black" fill-opacity="0.10"/><circle cx="447.8" cy="427.2" r="1.28" fill="black" fill-opacity="0.05"/><circle cx="290.6" cy="968.1" r="0.29" fill="black" fill-opacity="0.02"/><circle cx="521.0" cy="200.6" r="0.88" fill="black" fill-opacity="0.03"/><circle cx="206.0" cy="862.7" r="1.04" fill="black" fill-opacity="0.07"/><circle cx="551.9" cy="246.0" r="0.67" fill="black" fill-opacity="0.07"/><circle cx="216.0" cy="939.3" r="0.33" fill="black" fill-opacity="0.03"/><circle cx="206.9" cy="1095.5" r="0.84" fill="black" fill-opacity="0.05"/><circle cx="338.5" cy="19.3" r="0.91" fill="black" fill-opacity="0.08"/><circle cx="767.1" cy="626.0" r="1.21" fill="black" fill-opacity="0.03"/><circle cx="324.8" cy="318.0" r="0.65" fill="black" fill-opacity="0.05"/><circle cx="859.8" cy="210.0" r="1.21" fill="black" fill-opacity="0.03"/><circle cx="698.4" cy="358.7" r="1.53" fill="black" fill-opacity="0.07"/><circle cx="74.2" cy="157.7" r="0.33" fill="black" fill-opacity="0.06"/><circle cx="166.9" cy="976.6" r="1.27" fill="black" fill-opacity="0.08"/><circle cx="423.4" cy="917.6" r="0.65" fill="black" fill-opacity="0.10"/><circle cx="805.0" cy="797.6" r="0.56" fill="black" fill-opacity="0.06"/><circle cx="822.1" cy="613.7" r="0.56" fill="black" fill-opacity="0.03"/><circle cx="86.6" cy="668.3" r="0.93" fill="black" fill-opacity="0.05"/><circle cx="77.7" cy="137.8" r="0.51" fill="black" fill-opacity="0.07"/><circle cx="472.3" cy="387.5" r="1.10" fill="black" fill-opacity="0.10"/><circle cx="403.1" cy="285.4" r="1.39" fill="black" fill-opacity="0.09"/><circle cx="595.5" cy="865.7" r="0.63" fill="black" fill-opacity="0.09"/><circle cx="865.1" cy="830.6" r="1.22" fill="black" fill-opacity="0.04"/><circle cx="809.9" cy="23.6" r="0.22" fill="black" fill-opacity="0.07"/><circle cx="386.0" cy="502.5" r="0.32" fill="black" fill-opacity="0.04"/><circle cx="856.3" cy="345.3" r="0.54" fill="black" fill-opacity="0.06"/><circle cx="578.5" cy="39.3" r="0.21" fill="black" fill-opacity="0.03"/><circle cx="840.2" cy="1016.7" r="0.71" fill="black" fill-opacity="0.08"/><circle cx="469.2" cy="284.0" r="0.77" fill="black" fill-opacity="0.09"/><circle cx="279.9" cy="319.7" r="1.00" fill="black" fill-opacity="0.06"/><circle cx="66.4" cy="910.7" r="1.52" fill="black" fill-opacity="0.04"/><circle cx="231.5" cy="649.9" r="0.91" fill="black" fill-opacity="0.09"/><circle cx="778.5" cy="229.2" r="0.74" fill="black" fill-opacity="0.08"/><circle cx="272.7" cy="289.9" r="1.52" fill="black" fill-opacity="0.06"/><circle cx="151.2" cy="205.5" r="0.28" fill="black" fill-opacity="0.10"/><circle cx="704.8" cy="100.9" r="0.44" fill="black" fill-opacity="0.09"/><circle cx="659.6" cy="561.1" r="1.10" fill="black" fill-opacity="0.07"/><circle cx="575.5" cy="700.3" r="0.32" fill="black" fill-opacity="0.03"/><circle cx="292.0" cy="311.3" r="0.31" fill="black" fill-opacity="0.06"/><circle cx="137.3" cy="871.9" r="1.45" fill="black" fill-opacity="0.10"/><circle cx="849.9" cy="887.2" r="1.54" fill="black" fill-opacity="0.06"/><circle cx="303.4" cy="690.3" r="0.65" fill="black" fill-opacity="0.08"/><circle cx="42.7" cy="217.6" r="0.40" fill="black" fill-opacity="0.03"/><circle cx="826.9" cy="218.9" r="1.27" fill="black" fill-opacity="0.03"/><circle cx="255.4" cy="470.0" r="1.03" fill="black" fill-opacity="0.05"/><circle cx="378.9" cy="865.6" r="0.91" fill="black" fill-opacity="0.08"/><circle cx="81.3" cy="586.3" r="1.39" fill="black" fill-opacity="0.02"/><circle cx="245.0" cy="53.7" r="1.38" fill="black" fill-opacity="0.07"/><circle cx="584.3" cy="652.2" r="0.68" fill="black" fill-opacity="0.08"/><circle cx="641.2" cy="106.1" r="0.58" fill="black" fill-opacity="0.06"/><circle cx="43.2" cy="548.7" r="0.96" fill="black" fill-opacity="0.10"/><circle cx="788.0" cy="980.7" r="0.83" fill="black" fill-opacity="0.03"/><circle cx="655.5" cy="538.9" r="0.64" fill="black" fill-opacity="0.06"/><circle cx="349.6" cy="107.5" r="0.27" fill="black" fill-opacity="0.04"/><circle cx="513.4" cy="884.0" r="0.36" fill="black" fill-opacity="0.06"/><circle cx="4.7" cy="466.7" r="0.64" fill="black" fill-opacity="0.07"/><circle cx="18.8" cy="922.1" r="1.30" fill="black" fill-opacity="0.08"/><circle cx="498.1" cy="999.8" r="0.60" fill="black" fill-opacity="0.04"/>
</svg>
