<?xml version="1.0" encoding="UTF-8"?>
<svg xmlns="http://www.w3.org/2000/svg" viewBox="0 0 900 1100" width="900" height="1100" role="img" aria-label="Jasper bracelet placeholder">
  <defs><linearGradient id="guiztcx" x1="0" y1="0" x2="1" y2="1"><stop offset="0%" stop-color="#5b2c1a"/><stop offset="50%" stop-color="#a85a3c"/><stop offset="100%" stop-color="#e1bba0"/></linearGradient></defs>
  <rect width="900" height="1100" fill="url(#guiztcx)"/>
  <circle cx="439.1" cy="316.9" r="1.19" fill="black" fill-opacity="0.06"/><circle cx="53.1" cy="199.0" r="1.60" fill="black" fill-opacity="0.08"/><circle cx="443.7" cy="414.4" r="1.16" fill="black" fill-opacity="0.05"/><circle cx="671.7" cy="1077.0" r="1.01" fill="black" fill-opacity="0.02"/><circle cx="295.7" cy="1093.8" r="1.22" fill="black" fill-opacity="0.04"/><circle cx="90.4" cy="1085.0" r="0.43" fill="black" fill-opacity="0.02"/><circle cx="496.2" cy="744.6" r="0.72" fill="black" fill-opacity="0.06"/><circle cx="163.6" cy="1007.8" r="1.13" fill="black" fill-opacity="0.07"/><circle cx="399.1" cy="501.4" r="1.16" fill="black" fill-opacity="0.02"/><circle cx="424.6" cy="244.8" r="0.39" fill="black" fill-opacity="0.04"/><circle cx="628.2" cy="808.3" r="0.53" fill="black" fill-opacity="0.08"/><circle cx="302.0" cy="258.1" r="1.38" fill="black" fill-opacity="0.03"/><circle cx="560.1" cy="756.8" r="1.27" fill="black" fill-opacity="0.05"/><circle cx="731.9" cy="533.8" r="0.49" fill="black" fill-opacity="0.06"/><circle cx="869.8" cy="284.7" r="1.38" fill="black" fill-opacity="0.03"/><circle cx="761.1" cy="1035.7" r="1.40" fill="black" fill-opacity="0.07"/><circle cx="284.2" cy="729.9" r="1.15" fill="black" fill-opacity="0.06"/><circle cx="393.0" cy="652.0" r="0.91" fill="black" fill-opacity="0.08"/><circle cx="322.5" cy="762.7" r="0.30" fill="black" fill-opacity="0.09"/><circle cx="87.8" cy="564.6" r="0.99" fill="black" fill-opacity="0.09"/><circle cx="882.8" cy="766.1" r="0.95" fill="black" fill-opacity="0.05"/><circle cx="785.5" cy="619.5" r="0.89" fill="black" fill-opacity="0.06"/><circle cx="300.3" cy="959.3" r="1.29" fill="black" fill-opacity="0.10"/><circle cx="280.9" cy="606.5" r="0.89" fill="black" fill-opacity="0.05"/><circle cx="526.2" cy="237.6" r="0.76" fill="black" fill-opacity="0.08"/><circle cx="581.5" cy="65.2" r="0.73" fill="black" fill-opacity="0.04"/><circle cx="4.9" cy="1091.3" r="0.80" fill="black" fill-opacity="0.05"/><circle cx="270.5" cy="193.9" r="0.21" fill="black" fill-opacity="0.07"/><circle cx="22.4" cy="934.5" r="0.37" fill="black" fill-opacity="0.09"/><circle cx="115.8" cy="278.1" r="0.82" fill="black" fill-opacity="0.09"/><circle cx="175.1" cy="985.2" r="1.19" fill="black" fill-opacity="0.10"/><circle cx="195.5" cy="245.2" r="0.43" fill="black" fill-opacity="0.09"/><circle cx="554.2" cy="882.0" r="0.61" fill="black" fill-opacity="0.08"/><circle cx="348.9" cy="910.3" r="1.29" fill="black" fill-opacity="0.05"/><circle cx="510.4" cy="1029.9" r="1.14" fill="black" fill-opacity="0.10"/><circle cx="809.3" cy="253.3" r="0.41" fill="black" fill-opacity="0.03"/><circle cx="113.1" cy="472.9" r="0.33" fill="black" fill-opacity="0.06"/><circle cx="139.5" cy="329.3" r="1.33" fill="black" fill-opacity="0.06"/><circle cx="502.4" cy="546.4" r="1.09" fill="black" fill-opacity="0.02"/><circle cx="810.1" cy="965.9" r="0.36" fill="black" fill-opacity="0.06"/><circle cx="482.2" cy="48.9" r="0.31" fill="black" fill-opacity="0.07"/><circle cx="372.5" cy="29.7" r="0.87" fill="black" fill-opacity="0.04"/><circle cx="32.7" cy="88.2" r="0.79" fill="black" fill-opacity="0.09"/><circle cx="429.9" cy="806.0" r="1.31" fill="black" fill-opacity="0.03"/><circle cx="882.5" cy="355.4" r="1.14" fill="black" fill-opacity="0.05"/><circle cx="331.9" cy="895.7" r="0.86" fill="black" fill-opacity="0.08"/><circle cx="294.2" cy="652.3" r="1.20" fill="black" fill-opacity="0.07"/><circle cx="694.2" cy="903.3" r="0.33" fill="black" fill-opacity="0.09"/><circle cx="490.8" cy="872.3" r="1.36" fill="black" fill-opacity="0.09"/><circle cx="50.4" cy="323.9" r="0.93" fill="black" fill-opacity="0.02"/><circle cx="101.0" cy="60.4" r="0.53" fill="black" fill-opacity="0.10"/><circle cx="403.2" cy="813.7" r="0.90" fill="black" fill-opacity="0.03"/><circle cx="90.0" cy="491.7" r="1.47" fill="black" fill-opacity="0.07"/><circle cx="462.5" cy="0.9" r="1.17" fill="black" fill-opacity="0.07"/><circle cx="288.9" cy="1044.3" r="0.75" fill="black" fill-opacity="0.09"/><circle cx="700.3" cy="302.7" r="0.61" fill="black" fill-opacity="0.04"/><circle cx="899.0" cy="854.4" r="1.08" fill="black" fill-opacity="0.05"/><circle cx="183.6" cy="1053.6" r="0.53" fill="black" fill-opacity="0.09"/><circle cx="544.5" cy="27.3" r="1.10" fill="black" fill-opacity="0.03"/><circle cx="571.6" cy="42.9" r="1.41" fill="black" fill-opacity="0.07"/>
</svg>
