<?xml version="1.0" encoding="UTF-8"?>
<svg xmlns="http://www.w3.org/2000/svg" viewBox="0 0 900 1100" width="900" height="1100" role="img" aria-label="Amethyst bracelet placeholder">
  <defs><linearGradient id="gvljchb" x1="0" y1="0" x2="1" y2="1"><stop offset="0%" stop-color="#3b2452"/><stop offset="50%" stop-color="#6b4f8f"/><stop offset="100%" stop-color="#c8b8e1"/></linearGradient></defs>
  <rect width="900" height="1100" fill="url(#gvljchb)"/>
  <circle cx="400.8" cy="863.3" r="0.50" fill="black" fill-opacity="0.08"/><circle cx="193.0" cy="462.9" r="1.35" fill="black" fill-opacity="0.08"/><circle cx="466.7" cy="358.4" r="0.88" fill="black" fill-opacity="0.04"/><circle cx="829.5" cy="532.0" r="0.74" fill="black" fill-opacity="0.07"/><circle cx="478.6" cy="720.3" r="0.26" fill="black" fill-opacity="0.07"/><circle cx="529.9" cy="346.5" r="0.26" fill="black" fill-opacity="0.04"/><circle cx="176.1" cy="768.5" r="1.15" fill="black" fill-opacity="0.06"/><circle cx="531.1" cy="621.0" r="0.38" fill="black" fill-opacity="0.07"/><circle cx="684.2" cy="152.4" r="0.35" fill="black" fill-opacity="0.06"/><circle cx="56.4" cy="524.9" r="1.46" fill="black" fill-opacity="0.06"/><circle cx="714.5" cy="261.5" r="0.34" fill="black" fill-opacity="0.09"/><circle cx="253.2" cy="847.5" r="1.50" fill="black" fill-opacity="0.09"/><circle cx="96.1" cy="688.1" r="0.59" fill="black" fill-opacity="0.05"/><circle cx="98.0" cy="844.2" r="1.34" fill="black" fill-opacity="0.05"/><circle cx="535.5" cy="1000.8" r="0.39" fill="black" fill-opacity="0.05"/><circle cx="288.9" cy="711.2" r="0.26" fill="black" fill-opacity="0.05"/><circle cx="858.6" cy="29.0" r="0.23" fill="black" fill-opacity="0.02"/><circle cx="73.7" cy="982.8" r="1.43" fill="black" fill-opacity="0.03"/><circle cx="459.3" cy="364.3" r="1.18" fill="black" fill-opacity="0.09"/><circle cx="165.5" cy="233.6" r="1.43" fill="black" fill-opacity="0.08"/><circle cx="838.9" cy="510.5" r="0.38" fill="black" fill-opacity="0.06"/><circle cx="892.1" cy="844.6" r="0.34" fill="black" fill-opacity="0.05"/><circle cx="481.5" cy="172.7" r="0.58" fill="black" fill-opacity="0.08"/><circle cx="477.7" cy="388.5" r="1.53" fill="black" fill-opacity="0.03"/><circle cx="500.9" cy="199.8" r="1.42" fill="black" fill-opacity="0.02"/><circle cx="384.3" cy="803.3" r="1.14" fill="black" fill-opacity="0.08"/><circle cx="568.1" cy="62.0" r="1.43" fill="black" fill-opacity="0.04"/><circle cx="881.1" cy="846.8" r="0.98" fill="black" fill-opacity="0.06"/><circle cx="427.9" cy="214.2" r="0.63" fill="black" fill-opacity="0.04"/><circle cx="311.1" cy="921.5" r="1.11" fill="black" fill-opacity="0.03"/><circle cx="851.7" cy="152.8" r="0.48" fill="black" fill-opacity="0.09"/><circle cx="139.2" cy="1011.9" r="1.17" fill="black" fill-opacity="0.05"/><circle cx="96.5" cy="1049.4" r="1.01" fill="black" fill-opacity="0.05"/><circle cx="814.0" cy="27.5" r="0.98" fill="black" fill-opacity="0.03"/><circle cx="407.4" cy="98.4" r="1.11" fill="black" fill-opacity="0.07"/><circle cx="589.3" cy="356.3" r="1.27" fill="black" fill-opacity="0.07"/><circle cx="236.4" cy="710.6" r="0.98" fill="black" fill-opacity="0.08"/><circle cx="31.6" cy="189.4" r="1.43" fill="black" fill-opacity="0.10"/><circle cx="813.2" cy="19.3" r="0.30" fill="black" fill-opacity="0.02"/><circle cx="628.8" cy="439.0" r="1.20" fill="black" fill-opacity="0.03"/><circle cx="496.0" cy="372.6" r="0.33" fill="black" fill-opacity="0.08"/><circle cx="564.9" cy="335.0" r="1.53" fill="black" fill-opacity="0.07"/><circle cx="254.2" cy="8.1" r="0.70" fill="black" fill-opacity="0.03"/><circle cx="604.4" cy="60.4" r="0.37" fill="black" fill-opacity="0.05"/><circle cx="703.6" cy="457.2" r="1.56" fill="black" fill-opacity="0.06"/><circle cx="474.2" cy="348.8" r="0.38" fill="black" fill-opacity="0.04"/><circle cx="724.1" cy="767.1" r="0.39" fill="black" fill-opacity="0.08"/><circle cx="476.7" cy="747.1" r="0.59" fill="black" fill-opacity="0.04"/><circle cx="534.0" cy="548.9" r="1.22" fill="black" fill-opacity="0.02"/><circle cx="679.7" cy="1062.8" r="1.02" fill="black" fill-opacity="0.05"/><circle cx="594.8" cy="751.2" r="0.72" fill="black" fill-opacity="0.08"/><circle cx="63.8" cy="1050.3" r="0.72" fill="black" fill-opacity="0.05"/><circle cx="305.2" cy="1026.5" r="0.39" fill="black" fill-opacity="0.04"/><circle cx="509.9" cy="896.4" r="0.88" fill="black" fill-opacity="0.04"/><circle cx="204.4" cy="261.8" r="0.55" fill="black" fill-opacity="0.02"/><circle cx="394.0" cy="819.3" r="0.68" fill="black" fill-opacity="0.03"/><circle cx="22.8" cy="712.9" r="0.86" fill="black" fill-opacity="0.04"/><circle cx="756.5" cy="348.2" r="0.88" fill="black" fill-opacity="0.10"/><circle cx="816.1" cy="280.7" r="0.83" fill="black" fill-opacity="0.04"/><circle cx="330.4" cy="1080.9" r="0.23" fill="black" fill-opacity="0.04"/>
</svg>
