<?xml version="1.0" encoding="UTF-8"?>
<svg xmlns="http://www.w3.org/2000/svg" viewBox="0 0 900 1100" width="900" height="1100" role="img" aria-label="Turquoise bracelet placeholder">
  <defs><linearGradient id="gn09uak" x1="0" y1="0" x2="1" y2="1"><stop offset="0%" stop-color="#1e5e58"/><stop offset="50%" stop-color="#3e9a8e"/><stop offset="100%" stop-color="#aedfd7"/></linearGradient></defs>
  <rect width="900" height="1100" fill="url(#gn09uak)"/>
  <circle cx="369.6" cy="1074.1" r="0.83" fill="black" fill-opacity="0.03"/><circle cx="433.3" cy="134.5" r="1.40" fill="black" fill-opacity="0.09"/><circle cx="652.0" cy="128.5" r="0.82" fill="black" fill-opacity="0.06"/><circle cx="416.8" cy="1070.0" r="0.57" fill="black" fill-opacity="0.06"/><circle cx="30.2" cy="345.9" r="0.70" fill="black" fill-opacity="0.05"/><circle cx="19.5" cy="286.4" r="0.99" fill="black" fill-opacity="0.02"/><circle cx="539.6" cy="72.7" r="1.17" fill="black" fill-opacity="0.03"/><circle cx="11.0" cy="720.4" r="0.63" fill="black" fill-opacity="0.09"/><circle cx="446.8" cy="407.9" r="0.21" fill="black" fill-opacity="0.02"/><circle cx="457.0" cy="739.1" r="0.33" fill="black" fill-opacity="0.09"/><circle cx="865.5" cy="9.3" r="0.90" fill="black" fill-opacity="0.02"/><circle cx="69.3" cy="56.5" r="1.12" fill="black" fill-opacity="0.07"/><circle cx="584.7" cy="245.6" r="1.58" fill="black" fill-opacity="0.02"/><circle cx="65.6" cy="586.0" r="0.37" fill="black" fill-opacity="0.06"/><circle cx="834.9" cy="349.6" r="1.21" fill="black" fill-opacity="0.08"/><circle cx="770.7" cy="803.6" r="1.57" fill="black" fill-opacity="0.06"/><circle cx="498.1" cy="672.5" r="0.42" fill="black" fill-opacity="0.08"/><circle cx="732.5" cy="1060.1" r="0.23" fill="black" fill-opacity="0.06"/><circle cx="563.2" cy="824.4" r="0.38" fill="black" fill-opacity="0.09"/><circle cx="19.7" cy="950.7" r="0.70" fill="black" fill-opacity="0.09"/><circle cx="683.3" cy="371.0" r="0.20" fill="black" fill-opacity="0.05"/><circle cx="86.9" cy="807.9" r="1.37" fill="black" fill-opacity="0.08"/><circle cx="474.4" cy="1097.9" r="1.32" fill="black" fill-opacity="0.04"/><circle cx="407.9" cy="816.2" r="0.89" fill="black" fill-opacity="0.04"/><circle cx="541.2" cy="190.5" r="0.39" fill="black" fill-opacity="0.07"/><circle cx="156.0" cy="35.9" r="1.14" fill="black" fill-opacity="0.09"/><circle cx="389.7" cy="601.9" r="0.84" fill="black" fill-opacity="0.10"/><circle cx="32.0" cy="151.9" r="0.51" fill="black" fill-opacity="0.02"/><circle cx="202.2" cy="754.2" r="0.82" fill="black" fill-opacity="0.05"/><circle cx="574.7" cy="771.3" r="1.36" fill="black" fill-opacity="0.10"/><circle cx="187.9" cy="272.1" r="0.37" fill="black" fill-opacity="0.06"/><circle cx="297.2" cy="385.4" r="1.16" fill="black" fill-opacity="0.06"/><circle cx="798.2" cy="909.3" r="1.25" fill="black" fill-opacity="0.03"/><circle cx="431.4" cy="699.4" r="1.05" fill="black" fill-opacity="0.05"/><circle cx="372.9" cy="282.9" r="1.35" fill="black" fill-opacity="0.02"/><circle cx="447.8" cy="701.9" r="1.19" fill="black" fill-opacity="0.06"/><circle cx="508.3" cy="1075.3" r="0.72" fill="black" fill-opacity="0.10"/><circle cx="566.8" cy="817.8" r="0.33" fill="black" fill-opacity="0.09"/><circle cx="814.3" cy="235.8" r="0.91" fill="black" fill-opacity="0.08"/><circle cx="649.6" cy="610.2" r="1.33" fill="black" fill-opacity="0.07"/><circle cx="34.0" cy="53.7" r="0.95" fill="black" fill-opacity="0.04"/><circle cx="698.8" cy="558.2" r="1.02" fill="black" fill-opacity="0.05"/><circle cx="502.0" cy="1077.9" r="0.74" fill="black" fill-opacity="0.05"/><circle cx="311.4" cy="655.6" r="0.55" fill="black" fill-opacity="0.06"/><circle cx="683.9" cy="839.1" r="1.46" fill="black" fill-opacity="0.06"/><circle cx="117.1" cy="807.2" r="0.99" fill="black" fill-opacity="0.02"/><circle cx="704.3" cy="783.5" r="0.42" fill="black" fill-opacity="0.07"/><circle cx="788.8" cy="787.9" r="0.69" fill="black" fill-opacity="0.04"/><circle cx="763.6" cy="441.2" r="0.87" fill="black" fill-opacity="0.04"/><circle cx="84.9" cy="1025.2" r="0.54" fill="black" fill-opacity="0.04"/><circle cx="215.5" cy="900.0" r="1.20" fill="black" fill-opacity="0.03"/><circle cx="714.0" cy="72.8" r="0.55" fill="black" fill-opacity="0.06"/><circle cx="550.3" cy="31.2" r="1.55" fill="black" fill-opacity="0.04"/><circle cx="575.5" cy="287.9" r="1.32" fill="black" fill-opacity="0.08"/><circle cx="557.5" cy="629.7" r="1.36" fill="black" fill-opacity="0.10"/><circle cx="866.8" cy="927.8" r="0.72" fill="black" fill-opacity="0.02"/><circle cx="338.8" cy="244.0" r="1.43" fill="black" fill-opacity="0.08"/><circle cx="702.4" cy="667.6" r="0.34" fill="black" fill-opacity="0.05"/><circle cx="422.3" cy="847.7" r="0.73" fill="black" fill-opacity="0.03"/><circle cx="228.3" cy="241.9" r="0.89" fill="black" fill-opacity="0.07"/>
</svg>
