<?xml version="1.0" encoding="UTF-8"?>
<svg xmlns="http://www.w3.org/2000/svg" viewBox="0 0 1400 1000" width="1400" height="1000" role="img" aria-label="Bracelets collection placeholder">
  <defs><linearGradient id="gdc8w4f" x1="0" y1="0" x2="1" y2="1"><stop offset="0%" stop-color="#1e5e58"/><stop offset="50%" stop-color="#3e9a8e"/><stop offset="100%" stop-color="#aedfd7"/></linearGradient></defs>
  <rect width="1400" height="1000" fill="url(#gdc8w4f)"/>
  <circle cx="454.0" cy="156.5" r="1.07" fill="black" fill-opacity="0.05"/><circle cx="1324.5" cy="112.3" r="0.89" fill="black" fill-opacity="0.10"/><circle cx="1260.3" cy="368.1" r="0.72" fill="black" fill-opacity="0.06"/><circle cx="1216.4" cy="913.8" r="0.80" fill="black" fill-opacity="0.03"/><circle cx="140.9" cy="856.7" r="0.61" fill="black" fill-opacity="0.03"/><circle cx="1010.6" cy="507.8" r="0.67" fill="black" fill-opacity="0.08"/><circle cx="1298.1" cy="997.4" r="1.37" fill="black" fill-opacity="0.06"/><circle cx="947.5" cy="671.0" r="1.50" fill="black" fill-opacity="0.07"/><circle cx="185.3" cy="690.7" r="1.54" fill="black" fill-opacity="0.04"/><circle cx="796.8" cy="221.9" r="1.37" fill="black" fill-opacity="0.05"/><circle cx="283.3" cy="616.5" r="0.55" fill="black" fill-opacity="0.06"/><circle cx="1127.1" cy="392.0" r="0.69" fill="black" fill-opacity="0.03"/><circle cx="820.4" cy="825.9" r="1.58" fill="black" fill-opacity="0.03"/><circle cx="901.4" cy="829.3" r="1.09" fill="black" fill-opacity="0.10"/><circle cx="1065.7" cy="550.1" r="0.26" fill="black" fill-opacity="0.03"/><circle cx="62.1" cy="861.8" r="1.03" fill="black" fill-opacity="0.08"/><circle cx="1089.1" cy="475.2" r="0.39" fill="black" fill-opacity="0.09"/><circle cx="281.1" cy="609.0" r="0.50" fill="black" fill-opacity="0.07"/><circle cx="25.7" cy="736.2" r="0.59" fill="black" fill-opacity="0.05"/><circle cx="1089.3" cy="950.9" r="0.59" fill="black" fill-opacity="0.08"/><circle cx="338.1" cy="972.8" r="0.68" fill="black" fill-opacity="0.10"/><circle cx="616.4" cy="744.4" r="0.96" fill="black" fill-opacity="0.08"/><circle cx="760.9" cy="163.4" r="1.40" fill="black" fill-opacity="0.08"/><circle cx="306.9" cy="503.6" r="1.25" fill="black" fill-opacity="0.08"/><circle cx="452.9" cy="405.2" r="0.80" fill="black" fill-opacity="0.06"/><circle cx="375.3" cy="648.9" r="0.89" fill="black" fill-opacity="0.08"/><circle cx="41.1" cy="979.9" r="1.26" fill="black" fill-opacity="0.06"/><circle cx="718.4" cy="869.7" r="1.32" fill="black" fill-opacity="0.03"/><circle cx="1120.1" cy="578.0" r="1.07" fill="black" fill-opacity="0.09"/><circle cx="255.4" cy="424.5" r="0.27" fill="black" fill-opacity="0.07"/><circle cx="298.6" cy="408.6" r="0.79" fill="black" fill-opacity="0.03"/><circle cx="602.1" cy="121.0" r="0.53" fill="black" fill-opacity="0.08"/><circle cx="856.3" cy="851.1" r="0.93" fill="black" fill-opacity="0.06"/><circle cx="254.9" cy="177.2" r="0.67" fill="black" fill-opacity="0.04"/><circle cx="558.4" cy="288.6" r="1.45" fill="black" fill-opacity="0.04"/><circle cx="534.9" cy="139.3" r="1.37" fill="black" fill-opacity="0.07"/><circle cx="1380.0" cy="507.8" r="0.43" fill="black" fill-opacity="0.03"/><circle cx="1080.6" cy="896.4" r="0.31" fill="black" fill-opacity="0.09"/><circle cx="497.7" cy="101.5" r="0.60" fill="black" fill-opacity="0.09"/><circle cx="845.3" cy="649.4" r="0.62" fill="black" fill-opacity="0.05"/><circle cx="1327.4" cy="190.9" r="1.44" fill="black" fill-opacity="0.06"/><circle cx="648.4" cy="32.7" r="0.81" fill="black" fill-opacity="0.09"/><circle cx="982.2" cy="329.0" r="1.08" fill="black" fill-opacity="0.05"/><circle cx="260.7" cy="414.0" r="1.11" fill="black" fill-opacity="0.07"/><circle cx="801.6" cy="605.9" r="0.75" fill="black" fill-opacity="0.04"/><circle cx="540.7" cy="915.2" r="0.32" fill="black" fill-opacity="0.07"/><circle cx="412.9" cy="442.3" r="1.00" fill="black" fill-opacity="0.08"/><circle cx="948.3" cy="674.8" r="1.05" fill="black" fill-opacity="0.10"/><circle cx="1203.2" cy="679.8" r="0.24" fill="black" fill-opacity="0.08"/><circle cx="171.1" cy="96.8" r="0.36" fill="black" fill-opacity="0.06"/><circle cx="930.3" cy="558.2" r="0.92" fill="black" fill-opacity="0.09"/><circle cx="443.9" cy="994.4" r="0.74" fill="black" fill-opacity="0.07"/><circle cx="1361.0" cy="453.8" r="0.77" fill="black" fill-opacity="0.02"/><circle cx="389.4" cy="539.6" r="0.95" fill="black" fill-opacity="0.09"/><circle cx="463.0" cy="691.4" r="1.03" fill="black" fill-opacity="0.10"/><circle cx="210.0" cy="279.4" r="0.64" fill="black" fill-opacity="0.04"/><circle cx="718.2" cy="825.3" r="1.19" fill="black" fill-opacity="0.05"/><circle cx="986.4" cy="382.5" r="1.53" fill="black" fill-opacity="0.10"/><circle cx="442.7" cy="631.0" r="0.20" fill="black" fill-opacity="0.03"/><circle cx="935.8" cy="141.4" r="1.09" fill="black" fill-opacity="0.04"/>
</svg>
