<?xml version="1.0" encoding="UTF-8"?>
<svg xmlns="http://www.w3.org/2000/svg" viewBox="0 0 1400 1000" width="1400" height="1000" role="img" aria-label="Earrings collection placeholder">
  <defs><linearGradient id="gz2jp6d" x1="0" y1="0" x2="1" y2="1"><stop offset="0%" stop-color="#2c1f3a"/><stop offset="50%" stop-color="#6b4f8f"/><stop offset="100%" stop-color="#c8b8e1"/></linearGradient></defs>
  <rect width="1400" height="1000" fill="url(#gz2jp6d)"/>
  <circle cx="1013.8" cy="762.2" r="1.33" fill="black" fill-opacity="0.04"/><circle cx="483.8" cy="874.3" r="1.31" fill="black" fill-opacity="0.06"/><circle cx="1014.5" cy="526.2" r="1.08" fill="black" fill-opacity="0.07"/><circle cx="996.1" cy="626.2" r="0.86" fill="black" fill-opacity="0.07"/><circle cx="124.3" cy="531.4" r="0.44" fill="black" fill-opacity="0.04"/><circle cx="328.6" cy="792.2" r="1.10" fill="black" fill-opacity="0.02"/><circle cx="1138.1" cy="24.6" r="0.95" fill="black" fill-opacity="0.10"/><circle cx="941.8" cy="605.6" r="1.48" fill="black" fill-opacity="0.08"/><circle cx="1243.2" cy="769.5" r="1.05" fill="black" fill-opacity="0.08"/><circle cx="63.9" cy="368.4" r="1.13" fill="black" fill-opacity="0.05"/><circle cx="516.8" cy="70.3" r="1.54" fill="black" fill-opacity="0.03"/><circle cx="4.1" cy="289.4" r="0.70" fill="black" fill-opacity="0.09"/><circle cx="53.3" cy="302.5" r="0.26" fill="black" fill-opacity="0.05"/><circle cx="460.0" cy="901.2" r="0.95" fill="black" fill-opacity="0.07"/><circle cx="1033.1" cy="136.0" r="1.38" fill="black" fill-opacity="0.02"/><circle cx="1264.5" cy="287.3" r="1.50" fill="black" fill-opacity="0.09"/><circle cx="268.1" cy="68.1" r="0.54" fill="black" fill-opacity="0.05"/><circle cx="753.3" cy="205.8" r="1.49" fill="black" fill-opacity="0.03"/><circle cx="762.5" cy="272.3" r="0.53" fill="black" fill-opacity="0.02"/><circle cx="1031.9" cy="456.4" r="1.14" fill="black" fill-opacity="0.09"/><circle cx="373.2" cy="691.9" r="1.44" fill="black" fill-opacity="0.08"/><circle cx="204.7" cy="143.1" r="1.15" fill="black" fill-opacity="0.02"/><circle cx="47.2" cy="395.9" r="0.72" fill="black" fill-opacity="0.03"/><circle cx="355.3" cy="180.7" r="1.20" fill="black" fill-opacity="0.06"/><circle cx="576.2" cy="687.1" r="1.43" fill="black" fill-opacity="0.08"/><circle cx="1066.7" cy="230.9" r="0.38" fill="black" fill-opacity="0.05"/><circle cx="12.1" cy="567.1" r="1.10" fill="black" fill-opacity="0.04"/><circle cx="680.1" cy="177.7" r="0.96" fill="black" fill-opacity="0.05"/><circle cx="1248.8" cy="821.3" r="1.37" fill="black" fill-opacity="0.05"/><circle cx="636.1" cy="266.9" r="1.24" fill="black" fill-opacity="0.08"/><circle cx="55.9" cy="918.1" r="1.31" fill="black" fill-opacity="0.04"/><circle cx="1242.3" cy="145.9" r="0.86" fill="black" fill-opacity="0.05"/><circle cx="610.6" cy="168.6" r="0.30" fill="black" fill-opacity="0.05"/><circle cx="872.8" cy="400.2" r="1.24" fill="black" fill-opacity="0.03"/><circle cx="169.0" cy="806.0" r="0.99" fill="black" fill-opacity="0.05"/><circle cx="689.1" cy="971.4" r="1.03" fill="black" fill-opacity="0.02"/><circle cx="1334.6" cy="885.5" r="0.55" fill="black" fill-opacity="0.03"/><circle cx="158.6" cy="555.4" r="1.10" fill="black" fill-opacity="0.05"/><circle cx="723.1" cy="922.5" r="0.95" fill="black" fill-opacity="0.03"/><circle cx="250.8" cy="537.7" r="0.45" fill="black" fill-opacity="0.08"/><circle cx="182.7" cy="696.7" r="0.58" fill="black" fill-opacity="0.03"/><circle cx="180.5" cy="836.5" r="0.47" fill="black" fill-opacity="0.10"/><circle cx="1037.4" cy="973.6" r="1.13" fill="black" fill-opacity="0.06"/><circle cx="969.6" cy="618.5" r="1.16" fill="black" fill-opacity="0.07"/><circle cx="82.2" cy="884.1" r="0.93" fill="black" fill-opacity="0.07"/><circle cx="495.0" cy="325.2" r="1.50" fill="black" fill-opacity="0.08"/><circle cx="1387.2" cy="91.8" r="1.47" fill="black" fill-opacity="0.02"/><circle cx="645.3" cy="227.4" r="0.61" fill="black" fill-opacity="0.08"/><circle cx="804.4" cy="751.2" r="0.32" fill="black" fill-opacity="0.04"/><circle cx="1292.5" cy="652.8" r="0.68" fill="black" fill-opacity="0.04"/><circle cx="1276.9" cy="722.2" r="1.08" fill="black" fill-opacity="0.04"/><circle cx="1095.9" cy="753.3" r="0.22" fill="black" fill-opacity="0.07"/><circle cx="163.3" cy="603.8" r="0.34" fill="black" fill-opacity="0.04"/><circle cx="1197.7" cy="935.5" r="1.00" fill="black" fill-opacity="0.03"/><circle cx="343.4" cy="419.6" r="0.98" fill="black" fill-opacity="0.05"/><circle cx="1268.2" cy="308.9" r="0.72" fill="black" fill-opacity="0.05"/><circle cx="718.3" cy="16.3" r="1.19" fill="black" fill-opacity="0.07"/><circle cx="606.3" cy="571.9" r="1.23" fill="black" fill-opacity="0.05"/><circle cx="802.3" cy="466.1" r="0.81" fill="black" fill-opacity="0.09"/><circle cx="1367.3" cy="620.6" r="0.46" fill="black" fill-opacity="0.09"/>
</svg>
