<?xml version="1.0" encoding="UTF-8"?>
<svg xmlns="http://www.w3.org/2000/svg" viewBox="0 0 900 1100" width="900" height="1100" role="img" aria-label="Fluorite earrings placeholder">
  <defs><linearGradient id="gcpsuno" x1="0" y1="0" x2="1" y2="1"><stop offset="0%" stop-color="#2f4a5a"/><stop offset="50%" stop-color="#4a7a8a"/><stop offset="100%" stop-color="#bcd6df"/></linearGradient></defs>
  <rect width="900" height="1100" fill="url(#gcpsuno)"/>
  <circle cx="424.2" cy="892.9" r="1.10" fill="black" fill-opacity="0.08"/><circle cx="365.7" cy="1083.7" r="1.42" fill="black" fill-opacity="0.10"/><circle cx="425.5" cy="234.0" r="1.25" fill="black" fill-opacity="0.09"/><circle cx="832.7" cy="11.7" r="0.47" fill="black" fill-opacity="0.10"/><circle cx="550.0" cy="712.2" r="0.91" fill="black" fill-opacity="0.06"/><circle cx="158.2" cy="1044.4" r="0.60" fill="black" fill-opacity="0.06"/><circle cx="859.5" cy="1075.4" r="0.66" fill="black" fill-opacity="0.05"/><circle cx="764.3" cy="903.3" r="1.30" fill="black" fill-opacity="0.08"/><circle cx="226.6" cy="848.9" r="0.76" fill="black" fill-opacity="0.04"/><circle cx="442.4" cy="768.6" r="1.50" fill="black" fill-opacity="0.08"/><circle cx="1.2" cy="1086.0" r="0.52" fill="black" fill-opacity="0.07"/><circle cx="689.0" cy="363.1" r="1.51" fill="black" fill-opacity="0.07"/><circle cx="632.4" cy="111.7" r="0.32" fill="black" fill-opacity="0.03"/><circle cx="158.2" cy="520.7" r="0.53" fill="black" fill-opacity="0.05"/><circle cx="877.1" cy="1036.4" r="1.56" fill="black" fill-opacity="0.08"/><circle cx="560.4" cy="220.5" r="0.81" fill="black" fill-opacity="0.02"/><circle cx="550.9" cy="339.4" r="0.84" fill="black" fill-opacity="0.09"/><circle cx="288.1" cy="228.9" r="1.48" fill="black" fill-opacity="0.03"/><circle cx="71.0" cy="590.4" r="0.76" fill="black" fill-opacity="0.05"/><circle cx="715.5" cy="527.4" r="0.50" fill="black" fill-opacity="0.04"/><circle cx="657.3" cy="1041.7" r="0.26" fill="black" fill-opacity="0.05"/><circle cx="589.5" cy="1036.4" r="1.14" fill="black" fill-opacity="0.03"/><circle cx="637.5" cy="872.7" r="0.36" fill="black" fill-opacity="0.08"/><circle cx="623.9" cy="622.3" r="1.28" fill="black" fill-opacity="0.09"/><circle cx="839.8" cy="269.6" r="1.14" fill="black" fill-opacity="0.08"/><circle cx="295.7" cy="531.6" r="0.91" fill="black" fill-opacity="0.07"/><circle cx="309.1" cy="254.4" r="1.37" fill="black" fill-opacity="0.08"/><circle cx="715.1" cy="905.5" r="0.51" fill="black" fill-opacity="0.09"/><circle cx="587.4" cy="185.5" r="0.84" fill="black" fill-opacity="0.03"/><circle cx="761.9" cy="458.4" r="1.42" fill="black" fill-opacity="0.06"/><circle cx="231.7" cy="968.3" r="1.35" fill="black" fill-opacity="0.07"/><circle cx="30.7" cy="442.9" r="0.41" fill="black" fill-opacity="0.04"/><circle cx="375.4" cy="425.0" r="0.73" fill="black" fill-opacity="0.10"/><circle cx="468.3" cy="60.7" r="0.25" fill="black" fill-opacity="0.03"/><circle cx="378.7" cy="1026.4" r="1.53" fill="black" fill-opacity="0.05"/><circle cx="563.4" cy="632.3" r="1.05" fill="black" fill-opacity="0.04"/><circle cx="219.0" cy="186.1" r="1.18" fill="black" fill-opacity="0.09"/><circle cx="354.8" cy="574.8" r="1.30" fill="black" fill-opacity="0.06"/><circle cx="307.1" cy="879.5" r="1.27" fill="black" fill-opacity="0.03"/><circle cx="295.7" cy="482.4" r="0.72" fill="black" fill-opacity="0.08"/><circle cx="41.4" cy="653.7" r="0.71" fill="black" fill-opacity="0.08"/><circle cx="297.7" cy="730.8" r="0.60" fill="black" fill-opacity="0.08"/><circle cx="251.3" cy="530.3" r="0.61" fill="black" fill-opacity="0.08"/><circle cx="645.9" cy="677.3" r="0.75" fill="black" fill-opacity="0.10"/><circle cx="885.6" cy="823.2" r="0.44" fill="black" fill-opacity="0.07"/><circle cx="530.9" cy="739.5" r="0.74" fill="black" fill-opacity="0.04"/><circle cx="641.9" cy="1011.2" r="0.21" fill="black" fill-opacity="0.05"/><circle cx="3.2" cy="900.5" r="1.10" fill="black" fill-opacity="0.06"/><circle cx="429.8" cy="343.2" r="0.80" fill="black" fill-opacity="0.07"/><circle cx="568.3" cy="717.1" r="1.33" fill="black" fill-opacity="0.09"/><circle cx="781.0" cy="0.3" r="1.38" fill="black" fill-opacity="0.03"/><circle cx="613.0" cy="355.8" r="0.88" fill="black" fill-opacity="0.05"/><circle cx="69.9" cy="613.6" r="1.39" fill="black" fill-opacity="0.07"/><circle cx="350.2" cy="1091.2" r="0.21" fill="black" fill-opacity="0.09"/><circle cx="644.6" cy="989.7" r="0.96" fill="black" fill-opacity="0.08"/><circle cx="199.3" cy="453.2" r="1.02" fill="black" fill-opacity="0.08"/><circle cx="472.9" cy="702.8" r="0.36" fill="black" fill-opacity="0.02"/><circle cx="364.8" cy="805.3" r="0.64" fill="black" fill-opacity="0.05"/><circle cx="116.1" cy="675.2" r="1.07" fill="black" fill-opacity="0.05"/><circle cx="145.0" cy="858.4" r="0.78" fill="black" fill-opacity="0.02"/>
</svg>
