<?xml version="1.0" encoding="UTF-8"?>
<svg xmlns="http://www.w3.org/2000/svg" viewBox="0 0 900 1100" width="900" height="1100" role="img" aria-label="Moss agate earrings placeholder">
  <defs><linearGradient id="gp6mhnw" x1="0" y1="0" x2="1" y2="1"><stop offset="0%" stop-color="#3b4a2a"/><stop offset="50%" stop-color="#5f6f4a"/><stop offset="100%" stop-color="#c9d6b3"/></linearGradient></defs>
  <rect width="900" height="1100" fill="url(#gp6mhnw)"/>
  <circle cx="127.2" cy="348.2" r="0.35" fill="black" fill-opacity="0.02"/><circle cx="299.9" cy="482.8" r="1.25" fill="black" fill-opacity="0.05"/><circle cx="883.5" cy="879.3" r="0.34" fill="black" fill-opacity="0.07"/><circle cx="254.3" cy="741.2" r="0.97" fill="black" fill-opacity="0.09"/><circle cx="759.9" cy="706.0" r="1.19" fill="black" fill-opacity="0.08"/><circle cx="833.0" cy="183.6" r="1.15" fill="black" fill-opacity="0.03"/><circle cx="108.9" cy="555.5" r="1.48" fill="black" fill-opacity="0.05"/><circle cx="384.7" cy="19.6" r="1.46" fill="black" fill-opacity="0.08"/><circle cx="142.5" cy="206.8" r="0.77" fill="black" fill-opacity="0.07"/><circle cx="208.8" cy="82.4" r="1.53" fill="black" fill-opacity="0.05"/><circle cx="525.8" cy="546.0" r="1.29" fill="black" fill-opacity="0.09"/><circle cx="45.5" cy="333.4" r="1.19" fill="black" fill-opacity="0.08"/><circle cx="839.5" cy="50.8" r="1.40" fill="black" fill-opacity="0.04"/><circle cx="724.2" cy="536.7" r="0.25" fill="black" fill-opacity="0.04"/><circle cx="885.7" cy="746.2" r="1.55" fill="black" fill-opacity="0.10"/><circle cx="347.5" cy="421.4" r="1.36" fill="black" fill-opacity="0.10"/><circle cx="607.3" cy="992.3" r="1.15" fill="black" fill-opacity="0.10"/><circle cx="511.5" cy="934.4" r="0.54" fill="black" fill-opacity="0.08"/><circle cx="66.0" cy="131.8" r="0.86" fill="black" fill-opacity="0.07"/><circle cx="166.0" cy="893.3" r="0.80" fill="black" fill-opacity="0.09"/><circle cx="629.3" cy="821.0" r="0.56" fill="black" fill-opacity="0.05"/><circle cx="744.1" cy="836.8" r="0.59" fill="black" fill-opacity="0.07"/><circle cx="664.4" cy="861.7" r="1.18" fill="black" fill-opacity="0.02"/><circle cx="367.9" cy="154.8" r="0.86" fill="black" fill-opacity="0.05"/><circle cx="440.3" cy="418.2" r="1.25" fill="black" fill-opacity="0.04"/><circle cx="112.5" cy="407.3" r="0.49" fill="black" fill-opacity="0.04"/><circle cx="873.5" cy="799.8" r="1.11" fill="black" fill-opacity="0.07"/><circle cx="817.9" cy="821.7" r="1.36" fill="black" fill-opacity="0.03"/><circle cx="458.5" cy="1080.1" r="0.58" fill="black" fill-opacity="0.03"/><circle cx="294.1" cy="223.3" r="1.53" fill="black" fill-opacity="0.06"/><circle cx="858.3" cy="585.2" r="0.37" fill="black" fill-opacity="0.05"/><circle cx="38.0" cy="382.4" r="1.54" fill="black" fill-opacity="0.09"/><circle cx="606.9" cy="743.6" r="1.32" fill="black" fill-opacity="0.03"/><circle cx="680.3" cy="430.0" r="1.58" fill="black" fill-opacity="0.06"/><circle cx="738.2" cy="857.7" r="1.35" fill="black" fill-opacity="0.05"/><circle cx="345.0" cy="315.9" r="0.26" fill="black" fill-opacity="0.05"/><circle cx="748.4" cy="411.0" r="0.86" fill="black" fill-opacity="0.05"/><circle cx="243.0" cy="798.0" r="1.29" fill="black" fill-opacity="0.05"/><circle cx="419.8" cy="348.7" r="1.04" fill="black" fill-opacity="0.05"/><circle cx="859.4" cy="538.7" r="1.53" fill="black" fill-opacity="0.08"/><circle cx="859.0" cy="223.8" r="1.37" fill="black" fill-opacity="0.02"/><circle cx="59.1" cy="226.2" r="1.43" fill="black" fill-opacity="0.09"/><circle cx="688.1" cy="736.0" r="0.21" fill="black" fill-opacity="0.05"/><circle cx="759.5" cy="160.6" r="1.20" fill="black" fill-opacity="0.03"/><circle cx="821.1" cy="1049.6" r="0.98" fill="black" fill-opacity="0.09"/><circle cx="697.4" cy="297.8" r="1.31" fill="black" fill-opacity="0.08"/><circle cx="161.4" cy="551.7" r="0.44" fill="black" fill-opacity="0.07"/><circle cx="108.4" cy="811.2" r="1.56" fill="black" fill-opacity="0.04"/><circle cx="715.0" cy="276.7" r="1.44" fill="black" fill-opacity="0.08"/><circle cx="786.2" cy="800.3" r="1.21" fill="black" fill-opacity="0.04"/><circle cx="737.3" cy="425.8" r="0.50" fill="black" fill-opacity="0.06"/><circle cx="643.0" cy="360.6" r="1.41" fill="black" fill-opacity="0.10"/><circle cx="159.3" cy="991.6" r="0.53" fill="black" fill-opacity="0.03"/><circle cx="194.3" cy="603.3" r="0.24" fill="black" fill-opacity="0.07"/><circle cx="169.5" cy="860.3" r="0.41" fill="black" fill-opacity="0.04"/><circle cx="77.7" cy="16.7" r="0.95" fill="black" fill-opacity="0.08"/><circle cx="286.0" cy="250.0" r="1.07" fill="black" fill-opacity="0.09"/><circle cx="237.4" cy="31.2" r="1.23" fill="black" fill-opacity="0.04"/><circle cx="487.2" cy="689.2" r="0.63" fill="black" fill-opacity="0.06"/><circle cx="599.8" cy="994.2" r="1.22" fill="black" fill-opacity="0.02"/>
</svg>
