<?xml version="1.0" encoding="UTF-8"?>
<svg xmlns="http://www.w3.org/2000/svg" viewBox="0 0 900 1100" width="900" height="1100" role="img" aria-label="Jasper earrings placeholder">
  <defs><linearGradient id="gty9bsu" x1="0" y1="0" x2="1" y2="1"><stop offset="0%" stop-color="#5b2c1a"/><stop offset="50%" stop-color="#a85a3c"/><stop offset="100%" stop-color="#e1bba0"/></linearGradient></defs>
  <rect width="900" height="1100" fill="url(#gty9bsu)"/>
  <circle cx="357.3" cy="941.9" r="1.24" fill="black" fill-opacity="0.03"/><circle cx="736.5" cy="626.7" r="0.45" fill="black" fill-opacity="0.02"/><circle cx="0.6" cy="232.3" r="1.57" fill="black" fill-opacity="0.05"/><circle cx="560.3" cy="676.0" r="0.70" fill="black" fill-opacity="0.04"/><circle cx="102.2" cy="293.0" r="1.16" fill="black" fill-opacity="0.07"/><circle cx="559.1" cy="593.3" r="1.36" fill="black" fill-opacity="0.03"/><circle cx="650.6" cy="340.2" r="1.26" fill="black" fill-opacity="0.06"/><circle cx="43.7" cy="1082.7" r="0.83" fill="black" fill-opacity="0.03"/><circle cx="439.1" cy="261.6" r="1.28" fill="black" fill-opacity="0.05"/><circle cx="460.1" cy="348.0" r="0.79" fill="black" fill-opacity="0.07"/><circle cx="691.1" cy="1070.8" r="1.59" fill="black" fill-opacity="0.06"/><circle cx="887.6" cy="205.8" r="1.19" fill="black" fill-opacity="0.05"/><circle cx="795.7" cy="1007.9" r="1.32" fill="black" fill-opacity="0.07"/><circle cx="516.4" cy="636.1" r="1.54" fill="black" fill-opacity="0.05"/><circle cx="500.9" cy="520.8" r="0.49" fill="black" fill-opacity="0.09"/><circle cx="573.5" cy="0.3" r="0.61" fill="black" fill-opacity="0.06"/><circle cx="829.9" cy="898.6" r="0.92" fill="black" fill-opacity="0.08"/><circle cx="793.6" cy="1010.7" r="0.51" fill="black" fill-opacity="0.05"/><circle cx="325.9" cy="626.8" r="1.59" fill="black" fill-opacity="0.07"/><circle cx="81.6" cy="140.5" r="0.92" fill="black" fill-opacity="0.04"/><circle cx="216.9" cy="652.6" r="1.27" fill="black" fill-opacity="0.07"/><circle cx="37.6" cy="1028.5" r="0.41" fill="black" fill-opacity="0.06"/><circle cx="807.3" cy="756.7" r="0.57" fill="black" fill-opacity="0.08"/><circle cx="126.8" cy="214.8" r="0.24" fill="black" fill-opacity="0.05"/><circle cx="267.0" cy="1003.9" r="0.26" fill="black" fill-opacity="0.02"/><circle cx="212.2" cy="676.6" r="0.57" fill="black" fill-opacity="0.10"/><circle cx="219.8" cy="327.0" r="0.95" fill="black" fill-opacity="0.07"/><circle cx="344.1" cy="571.4" r="0.72" fill="black" fill-opacity="0.09"/><circle cx="245.5" cy="246.1" r="0.73" fill="black" fill-opacity="0.09"/><circle cx="158.8" cy="146.8" r="0.46" fill="black" fill-opacity="0.03"/><circle cx="361.6" cy="519.2" r="1.56" fill="black" fill-opacity="0.07"/><circle cx="882.0" cy="198.3" r="0.86" fill="black" fill-opacity="0.10"/><circle cx="298.8" cy="835.1" r="0.53" fill="black" fill-opacity="0.10"/><circle cx="479.7" cy="856.7" r="0.99" fill="black" fill-opacity="0.06"/><circle cx="328.2" cy="350.8" r="1.56" fill="black" fill-opacity="0.04"/><circle cx="60.7" cy="896.3" r="1.32" fill="black" fill-opacity="0.04"/><circle cx="836.6" cy="610.1" r="0.49" fill="black" fill-opacity="0.09"/><circle cx="665.9" cy="47.8" r="1.39" fill="black" fill-opacity="0.08"/><circle cx="251.4" cy="496.7" r="1.46" fill="black" fill-opacity="0.02"/><circle cx="892.7" cy="194.5" r="1.10" fill="black" fill-opacity="0.04"/><circle cx="249.9" cy="719.6" r="1.31" fill="black" fill-opacity="0.03"/><circle cx="464.9" cy="523.0" r="1.57" fill="black" fill-opacity="0.07"/><circle cx="436.4" cy="172.3" r="1.29" fill="black" fill-opacity="0.07"/><circle cx="595.1" cy="287.6" r="0.33" fill="black" fill-opacity="0.04"/><circle cx="686.4" cy="108.0" r="1.20" fill="black" fill-opacity="0.04"/><circle cx="197.5" cy="377.3" r="0.39" fill="black" fill-opacity="0.07"/><circle cx="871.0" cy="627.0" r="0.32" fill="black" fill-opacity="0.05"/><circle cx="607.5" cy="429.3" r="0.89" fill="black" fill-opacity="0.06"/><circle cx="252.7" cy="655.6" r="1.46" fill="black" fill-opacity="0.03"/><circle cx="465.0" cy="483.1" r="1.17" fill="black" fill-opacity="0.07"/><circle cx="28.3" cy="656.1" r="1.07" fill="black" fill-opacity="0.03"/><circle cx="298.9" cy="318.1" r="1.51" fill="black" fill-opacity="0.10"/><circle cx="681.3" cy="607.7" r="1.56" fill="black" fill-opacity="0.08"/><circle cx="198.8" cy="726.8" r="1.32" fill="black" fill-opacity="0.06"/><circle cx="753.8" cy="889.5" r="1.33" fill="black" fill-opacity="0.09"/><circle cx="859.3" cy="970.5" r="1.29" fill="black" fill-opacity="0.04"/><circle cx="783.0" cy="648.0" r="1.33" fill="black" fill-opacity="0.08"/><circle cx="510.7" cy="191.8" r="0.66" fill="black" fill-opacity="0.09"/><circle cx="588.7" cy="281.6" r="0.57" fill="black" fill-opacity="0.04"/><circle cx="385.1" cy="1058.7" r="1.06" fill="black" fill-opacity="0.07"/>
</svg>
