<?xml version="1.0" encoding="UTF-8"?>
<svg xmlns="http://www.w3.org/2000/svg" viewBox="0 0 900 1100" width="900" height="1100" role="img" aria-label="Amethyst earrings placeholder">
  <defs><linearGradient id="gqgkdwg" x1="0" y1="0" x2="1" y2="1"><stop offset="0%" stop-color="#3b2452"/><stop offset="50%" stop-color="#6b4f8f"/><stop offset="100%" stop-color="#c8b8e1"/></linearGradient></defs>
  <rect width="900" height="1100" fill="url(#gqgkdwg)"/>
  <circle cx="824.5" cy="539.0" r="0.41" fill="black" fill-opacity="0.05"/><circle cx="825.3" cy="228.6" r="1.30" fill="black" fill-opacity="0.06"/><circle cx="369.9" cy="914.7" r="0.73" fill="black" fill-opacity="0.07"/><circle cx="705.3" cy="170.4" r="1.49" fill="black" fill-opacity="0.09"/><circle cx="129.4" cy="709.5" r="1.14" fill="black" fill-opacity="0.08"/><circle cx="562.6" cy="627.5" r="0.95" fill="black" fill-opacity="0.09"/><circle cx="162.2" cy="533.2" r="0.52" fill="black" fill-opacity="0.03"/><circle cx="725.0" cy="633.6" r="0.82" fill="black" fill-opacity="0.10"/><circle cx="647.5" cy="1055.1" r="1.00" fill="black" fill-opacity="0.04"/><circle cx="436.3" cy="463.9" r="1.55" fill="black" fill-opacity="0.07"/><circle cx="497.4" cy="776.1" r="1.29" fill="black" fill-opacity="0.04"/><circle cx="23.5" cy="666.0" r="1.19" fill="black" fill-opacity="0.07"/><circle cx="593.4" cy="36.0" r="1.29" fill="black" fill-opacity="0.05"/><circle cx="883.8" cy="684.1" r="1.27" fill="black" fill-opacity="0.05"/><circle cx="108.3" cy="247.5" r="0.68" fill="black" fill-opacity="0.07"/><circle cx="176.4" cy="372.4" r="0.46" fill="black" fill-opacity="0.06"/><circle cx="619.6" cy="346.7" r="1.48" fill="black" fill-opacity="0.05"/><circle cx="217.4" cy="298.4" r="1.42" fill="black" fill-opacity="0.08"/><circle cx="382.8" cy="652.1" r="1.56" fill="black" fill-opacity="0.03"/><circle cx="319.0" cy="645.3" r="1.24" fill="black" fill-opacity="0.05"/><circle cx="158.3" cy="1088.2" r="0.49" fill="black" fill-opacity="0.08"/><circle cx="740.4" cy="510.0" r="0.47" fill="black" fill-opacity="0.10"/><circle cx="76.5" cy="174.5" r="0.35" fill="black" fill-opacity="0.08"/><circle cx="778.8" cy="994.2" r="0.60" fill="black" fill-opacity="0.04"/><circle cx="703.1" cy="660.8" r="1.01" fill="black" fill-opacity="0.05"/><circle cx="686.5" cy="1067.3" r="0.46" fill="black" fill-opacity="0.09"/><circle cx="368.1" cy="355.0" r="0.52" fill="black" fill-opacity="0.08"/><circle cx="877.5" cy="113.9" r="0.25" fill="black" fill-opacity="0.07"/><circle cx="333.4" cy="1032.5" r="1.50" fill="black" fill-opacity="0.03"/><circle cx="494.7" cy="59.2" r="0.39" fill="black" fill-opacity="0.06"/><circle cx="413.9" cy="264.6" r="1.26" fill="black" fill-opacity="0.09"/><circle cx="679.6" cy="137.9" r="0.32" fill="black" fill-opacity="0.07"/><circle cx="460.4" cy="93.5" r="0.26" fill="black" fill-opacity="0.02"/><circle cx="868.4" cy="475.3" r="1.18" fill="black" fill-opacity="0.06"/><circle cx="689.8" cy="482.2" r="0.82" fill="black" fill-opacity="0.05"/><circle cx="100.1" cy="516.7" r="1.16" fill="black" fill-opacity="0.07"/><circle cx="606.4" cy="893.8" r="0.90" fill="black" fill-opacity="0.06"/><circle cx="314.8" cy="516.6" r="0.80" fill="black" fill-opacity="0.08"/><circle cx="323.2" cy="157.8" r="0.50" fill="black" fill-opacity="0.04"/><circle cx="242.3" cy="809.2" r="1.02" fill="black" fill-opacity="0.09"/><circle cx="700.9" cy="921.4" r="0.88" fill="black" fill-opacity="0.09"/><circle cx="26.6" cy="571.2" r="1.16" fill="black" fill-opacity="0.09"/><circle cx="308.0" cy="619.2" r="0.77" fill="black" fill-opacity="0.03"/><circle cx="77.8" cy="109.5" r="0.92" fill="black" fill-opacity="0.09"/><circle cx="332.4" cy="328.8" r="1.21" fill="black" fill-opacity="0.05"/><circle cx="37.2" cy="654.0" r="0.55" fill="black" fill-opacity="0.03"/><circle cx="306.6" cy="707.1" r="0.22" fill="black" fill-opacity="0.04"/><circle cx="768.2" cy="223.4" r="0.20" fill="black" fill-opacity="0.07"/><circle cx="736.8" cy="417.3" r="1.48" fill="black" fill-opacity="0.02"/><circle cx="395.9" cy="640.0" r="1.01" fill="black" fill-opacity="0.09"/><circle cx="290.1" cy="1036.8" r="0.23" fill="black" fill-opacity="0.05"/><circle cx="410.6" cy="880.7" r="1.54" fill="black" fill-opacity="0.04"/><circle cx="277.5" cy="926.2" r="0.49" fill="black" fill-opacity="0.07"/><circle cx="411.7" cy="736.1" r="0.21" fill="black" fill-opacity="0.03"/><circle cx="607.4" cy="939.6" r="1.58" fill="black" fill-opacity="0.07"/><circle cx="430.2" cy="837.6" r="0.86" fill="black" fill-opacity="0.03"/><circle cx="844.2" cy="145.6" r="1.22" fill="black" fill-opacity="0.05"/><circle cx="238.6" cy="844.1" r="0.60" fill="black" fill-opacity="0.09"/><circle cx="659.9" cy="786.6" r="1.39" fill="black" fill-opacity="0.04"/><circle cx="765.9" cy="999.1" r="1.57" fill="black" fill-opacity="0.05"/>
</svg>
