<?xml version="1.0" encoding="UTF-8"?>
<svg xmlns="http://www.w3.org/2000/svg" viewBox="0 0 2400 1400" width="2400" height="1400" role="img" aria-label="Hero image placeholder">
  <defs><linearGradient id="giy66wl" x1="0" y1="0" x2="1" y2="1"><stop offset="0%" stop-color="#1d1a16"/><stop offset="33.33333333333333%" stop-color="#3a3530"/><stop offset="66.66666666666666%" stop-color="#8a6a3f"/><stop offset="100%" stop-color="#d8c9aa"/></linearGradient></defs>
  <rect width="2400" height="1400" fill="url(#giy66wl)"/>
  <circle cx="2137.7" cy="701.6" r="1.17" fill="black" fill-opacity="0.06"/><circle cx="2237.3" cy="199.8" r="1.30" fill="black" fill-opacity="0.08"/><circle cx="2070.2" cy="263.7" r="1.59" fill="black" fill-opacity="0.06"/><circle cx="2244.1" cy="98.4" r="0.57" fill="black" fill-opacity="0.05"/><circle cx="591.7" cy="917.6" r="0.25" fill="black" fill-opacity="0.09"/><circle cx="1152.4" cy="1276.4" r="1.21" fill="black" fill-opacity="0.02"/><circle cx="2078.8" cy="624.4" r="0.76" fill="black" fill-opacity="0.08"/><circle cx="1474.2" cy="174.5" r="0.42" fill="black" fill-opacity="0.05"/><circle cx="1274.7" cy="807.4" r="0.34" fill="black" fill-opacity="0.05"/><circle cx="2181.8" cy="154.8" r="1.39" fill="black" fill-opacity="0.05"/><circle cx="1757.7" cy="629.0" r="1.02" fill="black" fill-opacity="0.06"/><circle cx="821.0" cy="870.6" r="0.71" fill="black" fill-opacity="0.05"/><circle cx="1187.5" cy="406.0" r="0.39" fill="black" fill-opacity="0.09"/><circle cx="154.5" cy="378.2" r="1.03" fill="black" fill-opacity="0.04"/><circle cx="1628.7" cy="1005.2" r="1.19" fill="black" fill-opacity="0.10"/><circle cx="1462.7" cy="515.6" r="0.73" fill="black" fill-opacity="0.03"/><circle cx="1595.8" cy="905.3" r="0.88" fill="black" fill-opacity="0.09"/><circle cx="1410.2" cy="1136.5" r="0.54" fill="black" fill-opacity="0.02"/><circle cx="10.4" cy="980.9" r="1.54" fill="black" fill-opacity="0.05"/><circle cx="887.2" cy="371.0" r="0.76" fill="black" fill-opacity="0.02"/><circle cx="623.5" cy="1359.6" r="1.35" fill="black" fill-opacity="0.09"/><circle cx="1909.7" cy="22.5" r="1.09" fill="black" fill-opacity="0.10"/><circle cx="148.1" cy="221.1" r="0.95" fill="black" fill-opacity="0.06"/><circle cx="2289.9" cy="449.1" r="1.42" fill="black" fill-opacity="0.02"/><circle cx="420.7" cy="1060.8" r="1.03" fill="black" fill-opacity="0.02"/><circle cx="684.8" cy="411.7" r="0.88" fill="black" fill-opacity="0.08"/><circle cx="1489.0" cy="851.8" r="1.06" fill="black" fill-opacity="0.09"/><circle cx="1368.3" cy="685.6" r="1.07" fill="black" fill-opacity="0.06"/><circle cx="2357.8" cy="1263.7" r="0.27" fill="black" fill-opacity="0.08"/><circle cx="378.2" cy="107.6" r="0.51" fill="black" fill-opacity="0.03"/><circle cx="1420.8" cy="1216.4" r="1.17" fill="black" fill-opacity="0.02"/><circle cx="1295.2" cy="936.3" r="0.71" fill="black" fill-opacity="0.07"/><circle cx="714.7" cy="225.8" r="0.27" fill="black" fill-opacity="0.08"/><circle cx="128.8" cy="481.7" r="0.96" fill="black" fill-opacity="0.06"/><circle cx="2111.6" cy="491.7" r="1.31" fill="black" fill-opacity="0.03"/><circle cx="1961.2" cy="1321.6" r="1.06" fill="black" fill-opacity="0.06"/><circle cx="201.1" cy="737.2" r="1.10" fill="black" fill-opacity="0.03"/><circle cx="2156.0" cy="221.2" r="0.21" fill="black" fill-opacity="0.10"/><circle cx="779.8" cy="1126.1" r="1.32" fill="black" fill-opacity="0.10"/><circle cx="2311.3" cy="1316.8" r="1.38" fill="black" fill-opacity="0.02"/><circle cx="192.5" cy="806.9" r="0.59" fill="black" fill-opacity="0.07"/><circle cx="1567.8" cy="454.7" r="1.54" fill="black" fill-opacity="0.08"/><circle cx="1921.1" cy="1029.4" r="1.03" fill="black" fill-opacity="0.05"/><circle cx="2249.0" cy="1147.9" r="1.04" fill="black" fill-opacity="0.07"/><circle cx="891.0" cy="1353.5" r="0.98" fill="black" fill-opacity="0.08"/><circle cx="1195.0" cy="848.4" r="0.30" fill="black" fill-opacity="0.04"/><circle cx="973.0" cy="1187.5" r="1.56" fill="black" fill-opacity="0.05"/><circle cx="1484.0" cy="1296.4" r="0.76" fill="black" fill-opacity="0.05"/><circle cx="432.6" cy="106.3" r="0.58" fill="black" fill-opacity="0.03"/><circle cx="1763.2" cy="804.7" r="0.90" fill="black" fill-opacity="0.05"/><circle cx="195.3" cy="1389.9" r="1.34" fill="black" fill-opacity="0.09"/><circle cx="16.6" cy="1089.2" r="1.10" fill="black" fill-opacity="0.06"/><circle cx="1884.9" cy="448.5" r="0.42" fill="black" fill-opacity="0.03"/><circle cx="742.4" cy="993.5" r="1.03" fill="black" fill-opacity="0.06"/><circle cx="94.1" cy="409.7" r="1.54" fill="black" fill-opacity="0.07"/><circle cx="959.8" cy="1097.7" r="0.36" fill="black" fill-opacity="0.04"/><circle cx="1313.6" cy="1092.3" r="0.60" fill="black" fill-opacity="0.02"/><circle cx="757.9" cy="1211.1" r="0.55" fill="black" fill-opacity="0.02"/><circle cx="451.7" cy="670.3" r="1.50" fill="black" fill-opacity="0.04"/><circle cx="673.7" cy="1346.1" r="0.25" fill="black" fill-opacity="0.07"/>
</svg>
