<?xml version="1.0" encoding="UTF-8"?>
<svg xmlns="http://www.w3.org/2000/svg" viewBox="0 0 800 800" width="800" height="800" role="img" aria-label="Social placeholder 6">
  <defs><linearGradient id="gjwusef" x1="0" y1="0" x2="1" y2="1"><stop offset="0%" stop-color="#1d1a16"/><stop offset="50%" stop-color="#57514a"/><stop offset="100%" stop-color="#a8967a"/></linearGradient></defs>
  <rect width="800" height="800" fill="url(#gjwusef)"/>
  <circle cx="454.3" cy="274.8" r="1.33" fill="black" fill-opacity="0.03"/><circle cx="492.1" cy="96.2" r="0.62" fill="black" fill-opacity="0.03"/><circle cx="632.8" cy="84.0" r="1.12" fill="black" fill-opacity="0.09"/><circle cx="528.3" cy="110.7" r="1.13" fill="black" fill-opacity="0.07"/><circle cx="351.8" cy="231.1" r="1.53" fill="black" fill-opacity="0.06"/><circle cx="704.1" cy="450.3" r="0.88" fill="black" fill-opacity="0.02"/><circle cx="625.6" cy="685.7" r="1.03" fill="black" fill-opacity="0.07"/><circle cx="260.5" cy="189.7" r="1.49" fill="black" fill-opacity="0.08"/><circle cx="116.0" cy="735.4" r="0.22" fill="black" fill-opacity="0.04"/><circle cx="789.5" cy="390.7" r="0.45" fill="black" fill-opacity="0.05"/><circle cx="656.2" cy="38.1" r="1.15" fill="black" fill-opacity="0.07"/><circle cx="445.1" cy="56.9" r="1.51" fill="black" fill-opacity="0.02"/><circle cx="28.9" cy="212.5" r="0.82" fill="black" fill-opacity="0.08"/><circle cx="626.7" cy="334.2" r="0.58" fill="black" fill-opacity="0.05"/><circle cx="81.2" cy="201.0" r="0.85" fill="black" fill-opacity="0.02"/><circle cx="737.7" cy="400.3" r="0.30" fill="black" fill-opacity="0.02"/><circle cx="362.9" cy="717.3" r="1.04" fill="black" fill-opacity="0.09"/><circle cx="449.7" cy="635.5" r="0.52" fill="black" fill-opacity="0.04"/><circle cx="432.1" cy="184.5" r="1.47" fill="black" fill-opacity="0.02"/><circle cx="514.2" cy="86.7" r="0.64" fill="black" fill-opacity="0.05"/><circle cx="731.9" cy="442.3" r="1.02" fill="black" fill-opacity="0.06"/><circle cx="478.6" cy="173.5" r="0.26" fill="black" fill-opacity="0.02"/><circle cx="90.5" cy="86.8" r="1.00" fill="black" fill-opacity="0.08"/><circle cx="316.2" cy="429.4" r="1.50" fill="black" fill-opacity="0.10"/><circle cx="135.8" cy="678.8" r="1.50" fill="black" fill-opacity="0.09"/><circle cx="518.2" cy="367.8" r="0.36" fill="black" fill-opacity="0.10"/><circle cx="63.9" cy="40.0" r="0.76" fill="black" fill-opacity="0.05"/><circle cx="627.8" cy="194.8" r="0.21" fill="black" fill-opacity="0.03"/><circle cx="702.7" cy="549.6" r="1.30" fill="black" fill-opacity="0.07"/><circle cx="292.9" cy="457.5" r="0.40" fill="black" fill-opacity="0.02"/><circle cx="235.2" cy="123.0" r="0.46" fill="black" fill-opacity="0.05"/><circle cx="371.0" cy="718.0" r="1.11" fill="black" fill-opacity="0.04"/><circle cx="609.8" cy="407.8" r="0.98" fill="black" fill-opacity="0.08"/><circle cx="675.3" cy="670.7" r="1.53" fill="black" fill-opacity="0.06"/><circle cx="627.1" cy="235.2" r="1.24" fill="black" fill-opacity="0.04"/><circle cx="380.9" cy="390.2" r="1.32" fill="black" fill-opacity="0.06"/><circle cx="688.2" cy="564.2" r="1.33" fill="black" fill-opacity="0.08"/><circle cx="578.0" cy="24.1" r="0.26" fill="black" fill-opacity="0.10"/><circle cx="339.6" cy="427.3" r="0.74" fill="black" fill-opacity="0.05"/><circle cx="48.2" cy="20.2" r="0.39" fill="black" fill-opacity="0.09"/><circle cx="720.5" cy="738.0" r="0.54" fill="black" fill-opacity="0.02"/><circle cx="204.3" cy="524.3" r="1.17" fill="black" fill-opacity="0.04"/><circle cx="344.1" cy="163.7" r="1.40" fill="black" fill-opacity="0.06"/><circle cx="68.3" cy="59.2" r="0.99" fill="black" fill-opacity="0.07"/><circle cx="718.2" cy="235.3" r="1.04" fill="black" fill-opacity="0.04"/><circle cx="70.9" cy="72.7" r="0.70" fill="black" fill-opacity="0.08"/><circle cx="611.7" cy="371.4" r="0.87" fill="black" fill-opacity="0.09"/><circle cx="531.8" cy="537.1" r="0.54" fill="black" fill-opacity="0.03"/><circle cx="574.3" cy="559.2" r="0.88" fill="black" fill-opacity="0.04"/><circle cx="39.4" cy="177.9" r="0.82" fill="black" fill-opacity="0.09"/><circle cx="310.2" cy="648.6" r="1.49" fill="black" fill-opacity="0.06"/><circle cx="69.3" cy="489.4" r="0.60" fill="black" fill-opacity="0.07"/><circle cx="525.3" cy="530.3" r="0.65" fill="black" fill-opacity="0.08"/><circle cx="489.0" cy="12.6" r="1.22" fill="black" fill-opacity="0.09"/><circle cx="750.8" cy="670.5" r="1.27" fill="black" fill-opacity="0.03"/><circle cx="111.6" cy="638.4" r="1.33" fill="black" fill-opacity="0.05"/><circle cx="133.0" cy="360.3" r="0.46" fill="black" fill-opacity="0.08"/><circle cx="112.7" cy="57.8" r="0.36" fill="black" fill-opacity="0.10"/><circle cx="235.4" cy="411.4" r="0.76" fill="black" fill-opacity="0.08"/><circle cx="110.2" cy="172.7" r="1.40" fill="black" fill-opacity="0.08"/>
</svg>
