<?xml version="1.0" encoding="UTF-8"?>
<svg xmlns="http://www.w3.org/2000/svg" viewBox="0 0 800 800" width="800" height="800" role="img" aria-label="Social placeholder 4">
  <defs><linearGradient id="gmy7pys" x1="0" y1="0" x2="1" y2="1"><stop offset="0%" stop-color="#1d1a16"/><stop offset="50%" stop-color="#57514a"/><stop offset="100%" stop-color="#a8967a"/></linearGradient></defs>
  <rect width="800" height="800" fill="url(#gmy7pys)"/>
  <circle cx="652.0" cy="364.2" r="1.28" fill="black" fill-opacity="0.09"/><circle cx="152.8" cy="367.9" r="0.37" fill="black" fill-opacity="0.04"/><circle cx="36.4" cy="8.8" r="0.34" fill="black" fill-opacity="0.10"/><circle cx="507.5" cy="345.0" r="0.32" fill="black" fill-opacity="0.07"/><circle cx="144.3" cy="560.4" r="0.61" fill="black" fill-opacity="0.05"/><circle cx="289.7" cy="431.2" r="0.51" fill="black" fill-opacity="0.03"/><circle cx="86.6" cy="48.2" r="1.12" fill="black" fill-opacity="0.06"/><circle cx="122.5" cy="16.0" r="0.29" fill="black" fill-opacity="0.06"/><circle cx="103.5" cy="460.5" r="0.27" fill="black" fill-opacity="0.06"/><circle cx="93.5" cy="325.2" r="1.09" fill="black" fill-opacity="0.09"/><circle cx="373.7" cy="318.4" r="0.46" fill="black" fill-opacity="0.09"/><circle cx="353.7" cy="520.1" r="1.58" fill="black" fill-opacity="0.08"/><circle cx="193.9" cy="483.8" r="1.27" fill="black" fill-opacity="0.04"/><circle cx="71.4" cy="189.8" r="0.29" fill="black" fill-opacity="0.04"/><circle cx="444.1" cy="495.6" r="1.31" fill="black" fill-opacity="0.10"/><circle cx="227.2" cy="777.9" r="1.28" fill="black" fill-opacity="0.07"/><circle cx="182.3" cy="590.2" r="0.45" fill="black" fill-opacity="0.05"/><circle cx="67.7" cy="509.5" r="0.50" fill="black" fill-opacity="0.04"/><circle cx="279.4" cy="420.8" r="0.29" fill="black" fill-opacity="0.10"/><circle cx="190.3" cy="299.7" r="0.28" fill="black" fill-opacity="0.05"/><circle cx="34.7" cy="82.8" r="0.51" fill="black" fill-opacity="0.09"/><circle cx="699.1" cy="251.7" r="0.43" fill="black" fill-opacity="0.05"/><circle cx="116.3" cy="621.9" r="0.89" fill="black" fill-opacity="0.09"/><circle cx="401.9" cy="498.2" r="0.22" fill="black" fill-opacity="0.05"/><circle cx="215.6" cy="735.2" r="0.82" fill="black" fill-opacity="0.04"/><circle cx="269.3" cy="151.6" r="0.42" fill="black" fill-opacity="0.05"/><circle cx="86.9" cy="579.6" r="1.18" fill="black" fill-opacity="0.03"/><circle cx="214.1" cy="253.9" r="0.89" fill="black" fill-opacity="0.05"/><circle cx="183.5" cy="750.9" r="0.93" fill="black" fill-opacity="0.06"/><circle cx="409.3" cy="794.3" r="1.35" fill="black" fill-opacity="0.04"/><circle cx="131.8" cy="456.0" r="0.48" fill="black" fill-opacity="0.04"/><circle cx="456.1" cy="659.0" r="0.35" fill="black" fill-opacity="0.03"/><circle cx="2.6" cy="692.1" r="1.44" fill="black" fill-opacity="0.03"/><circle cx="397.3" cy="393.8" r="0.62" fill="black" fill-opacity="0.06"/><circle cx="680.9" cy="326.4" r="1.01" fill="black" fill-opacity="0.03"/><circle cx="637.3" cy="40.3" r="1.50" fill="black" fill-opacity="0.08"/><circle cx="320.4" cy="192.9" r="1.39" fill="black" fill-opacity="0.03"/><circle cx="635.1" cy="786.5" r="0.37" fill="black" fill-opacity="0.02"/><circle cx="783.1" cy="570.8" r="0.38" fill="black" fill-opacity="0.07"/><circle cx="588.9" cy="276.8" r="0.32" fill="black" fill-opacity="0.02"/><circle cx="257.0" cy="518.2" r="0.33" fill="black" fill-opacity="0.10"/><circle cx="318.3" cy="299.6" r="1.18" fill="black" fill-opacity="0.03"/><circle cx="638.5" cy="723.6" r="0.70" fill="black" fill-opacity="0.09"/><circle cx="544.2" cy="329.6" r="1.50" fill="black" fill-opacity="0.06"/><circle cx="784.1" cy="214.7" r="0.67" fill="black" fill-opacity="0.08"/><circle cx="107.5" cy="632.6" r="0.86" fill="black" fill-opacity="0.02"/><circle cx="15.3" cy="238.3" r="1.09" fill="black" fill-opacity="0.03"/><circle cx="735.5" cy="787.8" r="0.53" fill="black" fill-opacity="0.08"/><circle cx="541.8" cy="462.3" r="1.24" fill="black" fill-opacity="0.05"/><circle cx="527.9" cy="315.4" r="0.70" fill="black" fill-opacity="0.02"/><circle cx="181.6" cy="679.2" r="1.06" fill="black" fill-opacity="0.07"/><circle cx="554.5" cy="333.0" r="0.98" fill="black" fill-opacity="0.09"/><circle cx="39.2" cy="123.6" r="1.27" fill="black" fill-opacity="0.10"/><circle cx="533.1" cy="277.2" r="0.40" fill="black" fill-opacity="0.04"/><circle cx="649.0" cy="530.9" r="1.25" fill="black" fill-opacity="0.06"/><circle cx="368.9" cy="708.8" r="1.24" fill="black" fill-opacity="0.09"/><circle cx="211.4" cy="748.8" r="0.92" fill="black" fill-opacity="0.08"/><circle cx="702.7" cy="451.3" r="1.47" fill="black" fill-opacity="0.06"/><circle cx="376.0" cy="271.4" r="0.50" fill="black" fill-opacity="0.03"/><circle cx="390.5" cy="60.9" r="0.86" fill="black" fill-opacity="0.04"/>
</svg>
