<?xml version="1.0" encoding="UTF-8"?>
<svg xmlns="http://www.w3.org/2000/svg" viewBox="0 0 800 800" width="800" height="800" role="img" aria-label="Social placeholder 3">
  <defs><linearGradient id="gr89mfk" x1="0" y1="0" x2="1" y2="1"><stop offset="0%" stop-color="#1d1a16"/><stop offset="50%" stop-color="#57514a"/><stop offset="100%" stop-color="#a8967a"/></linearGradient></defs>
  <rect width="800" height="800" fill="url(#gr89mfk)"/>
  <circle cx="434.8" cy="476.9" r="1.40" fill="black" fill-opacity="0.02"/><circle cx="491.3" cy="454.4" r="0.37" fill="black" fill-opacity="0.09"/><circle cx="298.9" cy="765.1" r="1.55" fill="black" fill-opacity="0.04"/><circle cx="640.0" cy="700.4" r="1.60" fill="black" fill-opacity="0.07"/><circle cx="134.4" cy="488.2" r="0.70" fill="black" fill-opacity="0.08"/><circle cx="371.1" cy="579.2" r="1.47" fill="black" fill-opacity="0.03"/><circle cx="569.7" cy="497.5" r="0.38" fill="black" fill-opacity="0.10"/><circle cx="553.9" cy="268.7" r="1.55" fill="black" fill-opacity="0.03"/><circle cx="194.6" cy="487.0" r="1.31" fill="black" fill-opacity="0.05"/><circle cx="224.3" cy="373.5" r="0.79" fill="black" fill-opacity="0.02"/><circle cx="366.8" cy="683.2" r="0.48" fill="black" fill-opacity="0.03"/><circle cx="77.8" cy="137.0" r="1.44" fill="black" fill-opacity="0.06"/><circle cx="517.2" cy="577.0" r="1.32" fill="black" fill-opacity="0.05"/><circle cx="241.9" cy="350.0" r="0.44" fill="black" fill-opacity="0.08"/><circle cx="369.9" cy="616.2" r="0.62" fill="black" fill-opacity="0.05"/><circle cx="630.5" cy="393.6" r="0.92" fill="black" fill-opacity="0.05"/><circle cx="659.0" cy="495.8" r="0.89" fill="black" fill-opacity="0.05"/><circle cx="648.1" cy="134.9" r="1.03" fill="black" fill-opacity="0.08"/><circle cx="97.8" cy="383.2" r="0.61" fill="black" fill-opacity="0.05"/><circle cx="244.9" cy="354.8" r="1.34" fill="black" fill-opacity="0.09"/><circle cx="2.5" cy="166.4" r="0.61" fill="black" fill-opacity="0.09"/><circle cx="165.0" cy="59.3" r="0.51" fill="black" fill-opacity="0.08"/><circle cx="778.7" cy="693.5" r="0.72" fill="black" fill-opacity="0.04"/><circle cx="663.8" cy="274.8" r="0.50" fill="black" fill-opacity="0.03"/><circle cx="465.6" cy="627.7" r="0.74" fill="black" fill-opacity="0.06"/><circle cx="737.6" cy="692.7" r="1.10" fill="black" fill-opacity="0.09"/><circle cx="440.4" cy="226.1" r="0.79" fill="black" fill-opacity="0.06"/><circle cx="771.1" cy="124.0" r="0.79" fill="black" fill-opacity="0.09"/><circle cx="179.0" cy="194.1" r="0.21" fill="black" fill-opacity="0.06"/><circle cx="505.0" cy="174.1" r="0.72" fill="black" fill-opacity="0.06"/><circle cx="682.1" cy="98.9" r="0.63" fill="black" fill-opacity="0.04"/><circle cx="577.4" cy="2.2" r="0.59" fill="black" fill-opacity="0.03"/><circle cx="549.0" cy="503.4" r="0.93" fill="black" fill-opacity="0.05"/><circle cx="89.0" cy="482.8" r="1.28" fill="black" fill-opacity="0.07"/><circle cx="633.8" cy="223.6" r="1.04" fill="black" fill-opacity="0.05"/><circle cx="89.6" cy="247.8" r="0.92" fill="black" fill-opacity="0.03"/><circle cx="644.2" cy="595.0" r="1.45" fill="black" fill-opacity="0.02"/><circle cx="526.6" cy="261.8" r="1.22" fill="black" fill-opacity="0.09"/><circle cx="314.0" cy="650.5" r="0.83" fill="black" fill-opacity="0.04"/><circle cx="75.3" cy="186.5" r="0.56" fill="black" fill-opacity="0.04"/><circle cx="356.0" cy="599.4" r="1.46" fill="black" fill-opacity="0.03"/><circle cx="231.9" cy="293.2" r="0.65" fill="black" fill-opacity="0.08"/><circle cx="589.8" cy="502.0" r="0.84" fill="black" fill-opacity="0.06"/><circle cx="797.1" cy="120.3" r="0.69" fill="black" fill-opacity="0.07"/><circle cx="25.3" cy="465.0" r="0.35" fill="black" fill-opacity="0.10"/><circle cx="695.0" cy="323.5" r="1.05" fill="black" fill-opacity="0.08"/><circle cx="772.8" cy="633.1" r="1.41" fill="black" fill-opacity="0.09"/><circle cx="317.2" cy="73.2" r="1.05" fill="black" fill-opacity="0.09"/><circle cx="56.6" cy="196.1" r="1.22" fill="black" fill-opacity="0.06"/><circle cx="361.4" cy="392.9" r="1.20" fill="black" fill-opacity="0.06"/><circle cx="484.9" cy="792.8" r="0.46" fill="black" fill-opacity="0.06"/><circle cx="573.8" cy="445.2" r="0.27" fill="black" fill-opacity="0.04"/><circle cx="263.7" cy="702.5" r="0.67" fill="black" fill-opacity="0.05"/><circle cx="767.4" cy="504.3" r="0.67" fill="black" fill-opacity="0.03"/><circle cx="506.3" cy="522.3" r="1.44" fill="black" fill-opacity="0.06"/><circle cx="575.9" cy="108.4" r="1.58" fill="black" fill-opacity="0.05"/><circle cx="747.7" cy="301.9" r="1.15" fill="black" fill-opacity="0.06"/><circle cx="264.0" cy="119.1" r="0.67" fill="black" fill-opacity="0.10"/><circle cx="271.6" cy="505.8" r="1.55" fill="black" fill-opacity="0.07"/><circle cx="291.0" cy="394.6" r="0.69" fill="black" fill-opacity="0.07"/>
</svg>
