<?xml version="1.0" encoding="UTF-8"?>
<svg xmlns="http://www.w3.org/2000/svg" viewBox="0 0 800 800" width="800" height="800" role="img" aria-label="Social placeholder 5">
  <defs><linearGradient id="g918h3h" x1="0" y1="0" x2="1" y2="1"><stop offset="0%" stop-color="#1d1a16"/><stop offset="50%" stop-color="#57514a"/><stop offset="100%" stop-color="#a8967a"/></linearGradient></defs>
  <rect width="800" height="800" fill="url(#g918h3h)"/>
  <circle cx="467.5" cy="154.9" r="1.08" fill="black" fill-opacity="0.07"/><circle cx="166.4" cy="329.5" r="0.61" fill="black" fill-opacity="0.05"/><circle cx="392.0" cy="26.8" r="1.12" fill="black" fill-opacity="0.04"/><circle cx="713.9" cy="355.0" r="0.68" fill="black" fill-opacity="0.10"/><circle cx="607.1" cy="701.0" r="1.16" fill="black" fill-opacity="0.05"/><circle cx="154.5" cy="320.0" r="1.18" fill="black" fill-opacity="0.03"/><circle cx="64.3" cy="726.7" r="0.67" fill="black" fill-opacity="0.03"/><circle cx="493.4" cy="425.2" r="1.00" fill="black" fill-opacity="0.02"/><circle cx="275.1" cy="154.6" r="0.23" fill="black" fill-opacity="0.04"/><circle cx="710.1" cy="573.0" r="0.30" fill="black" fill-opacity="0.06"/><circle cx="168.3" cy="9.1" r="1.51" fill="black" fill-opacity="0.08"/><circle cx="267.4" cy="197.7" r="0.34" fill="black" fill-opacity="0.07"/><circle cx="767.2" cy="477.5" r="0.70" fill="black" fill-opacity="0.05"/><circle cx="454.2" cy="18.8" r="1.36" fill="black" fill-opacity="0.02"/><circle cx="188.5" cy="335.9" r="0.36" fill="black" fill-opacity="0.07"/><circle cx="249.0" cy="173.2" r="0.76" fill="black" fill-opacity="0.09"/><circle cx="581.6" cy="228.5" r="1.51" fill="black" fill-opacity="0.04"/><circle cx="740.9" cy="50.2" r="0.48" fill="black" fill-opacity="0.07"/><circle cx="516.6" cy="379.7" r="0.24" fill="black" fill-opacity="0.06"/><circle cx="649.1" cy="71.7" r="0.28" fill="black" fill-opacity="0.09"/><circle cx="469.9" cy="483.8" r="0.67" fill="black" fill-opacity="0.07"/><circle cx="157.5" cy="109.4" r="1.43" fill="black" fill-opacity="0.09"/><circle cx="623.0" cy="362.4" r="0.67" fill="black" fill-opacity="0.07"/><circle cx="572.9" cy="480.4" r="1.15" fill="black" fill-opacity="0.06"/><circle cx="659.8" cy="243.3" r="0.72" fill="black" fill-opacity="0.05"/><circle cx="588.9" cy="120.7" r="0.31" fill="black" fill-opacity="0.04"/><circle cx="395.8" cy="578.8" r="0.65" fill="black" fill-opacity="0.03"/><circle cx="651.9" cy="371.6" r="1.55" fill="black" fill-opacity="0.07"/><circle cx="716.6" cy="487.0" r="1.23" fill="black" fill-opacity="0.05"/><circle cx="36.9" cy="479.5" r="1.51" fill="black" fill-opacity="0.08"/><circle cx="484.9" cy="101.4" r="0.22" fill="black" fill-opacity="0.07"/><circle cx="752.6" cy="754.1" r="1.37" fill="black" fill-opacity="0.05"/><circle cx="219.5" cy="68.0" r="1.24" fill="black" fill-opacity="0.09"/><circle cx="288.8" cy="42.2" r="1.11" fill="black" fill-opacity="0.07"/><circle cx="200.1" cy="530.1" r="1.26" fill="black" fill-opacity="0.08"/><circle cx="722.2" cy="68.8" r="0.20" fill="black" fill-opacity="0.03"/><circle cx="182.1" cy="665.7" r="0.48" fill="black" fill-opacity="0.05"/><circle cx="709.1" cy="576.3" r="1.60" fill="black" fill-opacity="0.08"/><circle cx="727.4" cy="758.5" r="1.39" fill="black" fill-opacity="0.04"/><circle cx="713.9" cy="416.8" r="0.43" fill="black" fill-opacity="0.07"/><circle cx="653.4" cy="734.2" r="0.95" fill="black" fill-opacity="0.07"/><circle cx="477.2" cy="409.8" r="0.77" fill="black" fill-opacity="0.08"/><circle cx="642.3" cy="674.1" r="0.44" fill="black" fill-opacity="0.02"/><circle cx="410.8" cy="452.6" r="0.22" fill="black" fill-opacity="0.02"/><circle cx="176.1" cy="337.5" r="1.44" fill="black" fill-opacity="0.04"/><circle cx="249.2" cy="700.3" r="0.90" fill="black" fill-opacity="0.02"/><circle cx="406.3" cy="298.8" r="1.14" fill="black" fill-opacity="0.06"/><circle cx="490.1" cy="473.9" r="1.08" fill="black" fill-opacity="0.08"/><circle cx="364.3" cy="235.7" r="1.50" fill="black" fill-opacity="0.02"/><circle cx="723.4" cy="493.3" r="1.28" fill="black" fill-opacity="0.08"/><circle cx="243.3" cy="148.2" r="1.50" fill="black" fill-opacity="0.03"/><circle cx="602.6" cy="613.0" r="1.47" fill="black" fill-opacity="0.07"/><circle cx="25.4" cy="246.9" r="1.38" fill="black" fill-opacity="0.10"/><circle cx="625.3" cy="450.0" r="1.43" fill="black" fill-opacity="0.05"/><circle cx="630.6" cy="46.0" r="0.26" fill="black" fill-opacity="0.04"/><circle cx="213.6" cy="301.6" r="1.54" fill="black" fill-opacity="0.04"/><circle cx="52.8" cy="564.6" r="1.04" fill="black" fill-opacity="0.08"/><circle cx="161.6" cy="492.4" r="1.14" fill="black" fill-opacity="0.02"/><circle cx="626.3" cy="770.3" r="0.98" fill="black" fill-opacity="0.06"/><circle cx="77.0" cy="88.9" r="1.10" fill="black" fill-opacity="0.07"/>
</svg>
