<?xml version="1.0" encoding="UTF-8"?>
<svg xmlns="http://www.w3.org/2000/svg" viewBox="0 0 800 800" width="800" height="800" role="img" aria-label="Social placeholder 2">
  <defs><linearGradient id="gy10xaf" x1="0" y1="0" x2="1" y2="1"><stop offset="0%" stop-color="#1d1a16"/><stop offset="50%" stop-color="#57514a"/><stop offset="100%" stop-color="#a8967a"/></linearGradient></defs>
  <rect width="800" height="800" fill="url(#gy10xaf)"/>
  <circle cx="576.0" cy="10.6" r="1.48" fill="black" fill-opacity="0.08"/><circle cx="777.5" cy="185.7" r="1.08" fill="black" fill-opacity="0.07"/><circle cx="310.4" cy="297.4" r="1.25" fill="black" fill-opacity="0.03"/><circle cx="97.2" cy="277.8" r="1.12" fill="black" fill-opacity="0.02"/><circle cx="458.7" cy="8.0" r="0.90" fill="black" fill-opacity="0.02"/><circle cx="578.4" cy="516.3" r="1.22" fill="black" fill-opacity="0.06"/><circle cx="391.3" cy="600.2" r="1.11" fill="black" fill-opacity="0.05"/><circle cx="290.4" cy="293.9" r="1.50" fill="black" fill-opacity="0.03"/><circle cx="644.3" cy="562.9" r="1.20" fill="black" fill-opacity="0.08"/><circle cx="235.5" cy="497.3" r="0.74" fill="black" fill-opacity="0.07"/><circle cx="716.7" cy="322.7" r="0.98" fill="black" fill-opacity="0.07"/><circle cx="423.3" cy="781.1" r="1.31" fill="black" fill-opacity="0.06"/><circle cx="138.6" cy="132.2" r="1.15" fill="black" fill-opacity="0.08"/><circle cx="148.5" cy="680.4" r="0.29" fill="black" fill-opacity="0.07"/><circle cx="356.4" cy="713.4" r="0.66" fill="black" fill-opacity="0.07"/><circle cx="712.5" cy="93.6" r="1.39" fill="black" fill-opacity="0.07"/><circle cx="627.5" cy="626.7" r="1.38" fill="black" fill-opacity="0.07"/><circle cx="116.8" cy="534.6" r="0.56" fill="black" fill-opacity="0.09"/><circle cx="777.7" cy="100.7" r="0.66" fill="black" fill-opacity="0.06"/><circle cx="141.2" cy="157.0" r="1.13" fill="black" fill-opacity="0.06"/><circle cx="228.2" cy="534.5" r="0.42" fill="black" fill-opacity="0.05"/><circle cx="218.7" cy="11.7" r="1.47" fill="black" fill-opacity="0.03"/><circle cx="137.0" cy="631.2" r="0.59" fill="black" fill-opacity="0.10"/><circle cx="657.3" cy="605.3" r="1.49" fill="black" fill-opacity="0.10"/><circle cx="637.1" cy="32.5" r="1.22" fill="black" fill-opacity="0.04"/><circle cx="414.5" cy="736.0" r="1.05" fill="black" fill-opacity="0.03"/><circle cx="604.6" cy="462.3" r="1.56" fill="black" fill-opacity="0.09"/><circle cx="566.6" cy="773.5" r="0.98" fill="black" fill-opacity="0.06"/><circle cx="265.6" cy="241.9" r="0.58" fill="black" fill-opacity="0.06"/><circle cx="763.0" cy="536.7" r="0.74" fill="black" fill-opacity="0.05"/><circle cx="672.7" cy="644.9" r="0.82" fill="black" fill-opacity="0.05"/><circle cx="308.5" cy="284.1" r="1.13" fill="black" fill-opacity="0.06"/><circle cx="568.9" cy="60.0" r="0.35" fill="black" fill-opacity="0.04"/><circle cx="95.5" cy="533.4" r="0.94" fill="black" fill-opacity="0.04"/><circle cx="398.4" cy="545.9" r="0.60" fill="black" fill-opacity="0.02"/><circle cx="752.5" cy="179.3" r="0.65" fill="black" fill-opacity="0.06"/><circle cx="176.5" cy="711.1" r="0.75" fill="black" fill-opacity="0.05"/><circle cx="648.1" cy="413.0" r="0.56" fill="black" fill-opacity="0.02"/><circle cx="392.9" cy="623.6" r="0.88" fill="black" fill-opacity="0.03"/><circle cx="156.6" cy="738.6" r="1.18" fill="black" fill-opacity="0.07"/><circle cx="175.5" cy="264.9" r="0.71" fill="black" fill-opacity="0.04"/><circle cx="568.8" cy="228.5" r="0.25" fill="black" fill-opacity="0.04"/><circle cx="167.1" cy="93.5" r="1.20" fill="black" fill-opacity="0.03"/><circle cx="533.8" cy="797.8" r="1.57" fill="black" fill-opacity="0.09"/><circle cx="705.1" cy="206.9" r="0.87" fill="black" fill-opacity="0.07"/><circle cx="84.3" cy="330.0" r="0.63" fill="black" fill-opacity="0.07"/><circle cx="627.1" cy="161.3" r="1.18" fill="black" fill-opacity="0.10"/><circle cx="86.8" cy="153.4" r="1.53" fill="black" fill-opacity="0.05"/><circle cx="179.7" cy="482.8" r="0.46" fill="black" fill-opacity="0.08"/><circle cx="640.2" cy="648.4" r="0.67" fill="black" fill-opacity="0.09"/><circle cx="705.0" cy="741.5" r="1.45" fill="black" fill-opacity="0.09"/><circle cx="546.7" cy="535.6" r="0.65" fill="black" fill-opacity="0.06"/><circle cx="24.6" cy="57.6" r="1.40" fill="black" fill-opacity="0.09"/><circle cx="400.7" cy="763.4" r="1.54" fill="black" fill-opacity="0.09"/><circle cx="467.6" cy="120.8" r="1.59" fill="black" fill-opacity="0.05"/><circle cx="185.4" cy="422.2" r="1.12" fill="black" fill-opacity="0.07"/><circle cx="640.3" cy="20.3" r="0.83" fill="black" fill-opacity="0.05"/><circle cx="364.0" cy="131.5" r="0.60" fill="black" fill-opacity="0.07"/><circle cx="148.2" cy="24.6" r="1.33" fill="black" fill-opacity="0.05"/><circle cx="681.2" cy="406.4" r="0.25" fill="black" fill-opacity="0.06"/>
</svg>
