<?xml version="1.0" encoding="UTF-8"?>
<svg xmlns="http://www.w3.org/2000/svg" viewBox="0 0 800 800" width="800" height="800" role="img" aria-label="Social placeholder 1">
  <defs><linearGradient id="gnfa6c5" x1="0" y1="0" x2="1" y2="1"><stop offset="0%" stop-color="#1d1a16"/><stop offset="50%" stop-color="#57514a"/><stop offset="100%" stop-color="#a8967a"/></linearGradient></defs>
  <rect width="800" height="800" fill="url(#gnfa6c5)"/>
  <circle cx="463.1" cy="799.2" r="0.32" fill="black" fill-opacity="0.05"/><circle cx="213.6" cy="314.6" r="0.36" fill="black" fill-opacity="0.10"/><circle cx="632.9" cy="473.8" r="0.42" fill="black" fill-opacity="0.07"/><circle cx="329.0" cy="783.5" r="1.57" fill="black" fill-opacity="0.03"/><circle cx="319.6" cy="151.0" r="1.13" fill="black" fill-opacity="0.05"/><circle cx="248.9" cy="67.4" r="1.30" fill="black" fill-opacity="0.07"/><circle cx="419.8" cy="358.3" r="1.57" fill="black" fill-opacity="0.04"/><circle cx="756.5" cy="314.9" r="0.67" fill="black" fill-opacity="0.09"/><circle cx="532.2" cy="503.1" r="0.22" fill="black" fill-opacity="0.04"/><circle cx="411.0" cy="738.8" r="0.48" fill="black" fill-opacity="0.08"/><circle cx="324.6" cy="621.7" r="0.79" fill="black" fill-opacity="0.05"/><circle cx="543.5" cy="430.0" r="0.44" fill="black" fill-opacity="0.05"/><circle cx="780.5" cy="456.2" r="0.61" fill="black" fill-opacity="0.04"/><circle cx="298.7" cy="429.0" r="0.68" fill="black" fill-opacity="0.08"/><circle cx="227.2" cy="774.5" r="0.38" fill="black" fill-opacity="0.05"/><circle cx="220.6" cy="19.4" r="0.22" fill="black" fill-opacity="0.10"/><circle cx="321.8" cy="34.8" r="0.34" fill="black" fill-opacity="0.05"/><circle cx="515.1" cy="172.6" r="0.78" fill="black" fill-opacity="0.09"/><circle cx="387.0" cy="715.4" r="1.25" fill="black" fill-opacity="0.03"/><circle cx="632.9" cy="256.5" r="0.36" fill="black" fill-opacity="0.10"/><circle cx="507.3" cy="275.8" r="1.06" fill="black" fill-opacity="0.03"/><circle cx="549.3" cy="537.3" r="1.19" fill="black" fill-opacity="0.05"/><circle cx="298.8" cy="581.6" r="0.68" fill="black" fill-opacity="0.06"/><circle cx="265.9" cy="308.2" r="1.37" fill="black" fill-opacity="0.09"/><circle cx="83.3" cy="180.0" r="0.69" fill="black" fill-opacity="0.10"/><circle cx="748.1" cy="131.7" r="0.59" fill="black" fill-opacity="0.03"/><circle cx="652.2" cy="302.8" r="0.39" fill="black" fill-opacity="0.08"/><circle cx="615.0" cy="793.6" r="1.30" fill="black" fill-opacity="0.02"/><circle cx="262.8" cy="100.2" r="0.58" fill="black" fill-opacity="0.07"/><circle cx="379.8" cy="620.2" r="0.25" fill="black" fill-opacity="0.08"/><circle cx="293.0" cy="273.6" r="1.30" fill="black" fill-opacity="0.09"/><circle cx="590.3" cy="24.5" r="0.44" fill="black" fill-opacity="0.07"/><circle cx="363.5" cy="353.7" r="0.42" fill="black" fill-opacity="0.04"/><circle cx="126.0" cy="561.7" r="0.51" fill="black" fill-opacity="0.03"/><circle cx="458.7" cy="178.3" r="0.80" fill="black" fill-opacity="0.04"/><circle cx="431.8" cy="384.6" r="0.63" fill="black" fill-opacity="0.07"/><circle cx="605.1" cy="542.2" r="0.60" fill="black" fill-opacity="0.02"/><circle cx="267.5" cy="14.4" r="1.15" fill="black" fill-opacity="0.10"/><circle cx="504.1" cy="650.8" r="0.22" fill="black" fill-opacity="0.05"/><circle cx="706.3" cy="598.1" r="0.34" fill="black" fill-opacity="0.08"/><circle cx="294.4" cy="243.4" r="0.48" fill="black" fill-opacity="0.03"/><circle cx="328.3" cy="51.7" r="0.38" fill="black" fill-opacity="0.05"/><circle cx="629.3" cy="500.9" r="0.34" fill="black" fill-opacity="0.04"/><circle cx="775.6" cy="131.4" r="0.80" fill="black" fill-opacity="0.05"/><circle cx="628.8" cy="598.6" r="1.07" fill="black" fill-opacity="0.07"/><circle cx="768.1" cy="481.0" r="1.41" fill="black" fill-opacity="0.02"/><circle cx="212.8" cy="604.8" r="1.43" fill="black" fill-opacity="0.08"/><circle cx="108.6" cy="204.5" r="1.30" fill="black" fill-opacity="0.03"/><circle cx="475.1" cy="759.4" r="0.48" fill="black" fill-opacity="0.03"/><circle cx="43.3" cy="263.4" r="1.30" fill="black" fill-opacity="0.03"/><circle cx="475.2" cy="332.0" r="1.23" fill="black" fill-opacity="0.03"/><circle cx="548.2" cy="676.0" r="0.74" fill="black" fill-opacity="0.10"/><circle cx="254.0" cy="151.3" r="0.80" fill="black" fill-opacity="0.03"/><circle cx="508.8" cy="8.3" r="0.32" fill="black" fill-opacity="0.05"/><circle cx="212.0" cy="471.4" r="1.21" fill="black" fill-opacity="0.05"/><circle cx="649.7" cy="482.9" r="1.49" fill="black" fill-opacity="0.03"/><circle cx="167.2" cy="356.1" r="0.60" fill="black" fill-opacity="0.09"/><circle cx="88.2" cy="609.3" r="0.47" fill="black" fill-opacity="0.08"/><circle cx="203.1" cy="323.9" r="0.50" fill="black" fill-opacity="0.08"/><circle cx="276.5" cy="264.6" r="0.48" fill="black" fill-opacity="0.09"/>
</svg>
