<?xml version="1.0" encoding="UTF-8"?>
<svg xmlns="http://www.w3.org/2000/svg" viewBox="0 0 1000 1300" width="1000" height="1300" role="img" aria-label="Maker portrait placeholder">
  <defs><linearGradient id="ggj08q2" x1="0" y1="0" x2="1" y2="1"><stop offset="0%" stop-color="#2a2520"/><stop offset="50%" stop-color="#57514a"/><stop offset="100%" stop-color="#d8c9aa"/></linearGradient></defs>
  <rect width="1000" height="1300" fill="url(#ggj08q2)"/>
  <circle cx="418.9" cy="489.2" r="1.14" fill="black" fill-opacity="0.08"/><circle cx="893.0" cy="954.7" r="0.64" fill="black" fill-opacity="0.08"/><circle cx="875.5" cy="189.2" r="0.26" fill="black" fill-opacity="0.08"/><circle cx="280.1" cy="70.4" r="0.26" fill="black" fill-opacity="0.05"/><circle cx="115.5" cy="981.7" r="1.18" fill="black" fill-opacity="0.04"/><circle cx="510.9" cy="474.6" r="0.80" fill="black" fill-opacity="0.10"/><circle cx="265.4" cy="1226.2" r="0.40" fill="black" fill-opacity="0.05"/><circle cx="496.9" cy="1150.3" r="1.59" fill="black" fill-opacity="0.07"/><circle cx="137.0" cy="457.0" r="0.65" fill="black" fill-opacity="0.03"/><circle cx="513.8" cy="1234.8" r="0.56" fill="black" fill-opacity="0.07"/><circle cx="50.0" cy="863.5" r="0.45" fill="black" fill-opacity="0.05"/><circle cx="706.4" cy="9.4" r="0.67" fill="black" fill-opacity="0.09"/><circle cx="609.7" cy="37.0" r="1.37" fill="black" fill-opacity="0.02"/><circle cx="993.7" cy="476.8" r="0.38" fill="black" fill-opacity="0.05"/><circle cx="245.2" cy="813.0" r="1.31" fill="black" fill-opacity="0.02"/><circle cx="434.1" cy="667.7" r="0.71" fill="black" fill-opacity="0.03"/><circle cx="591.1" cy="338.1" r="0.60" fill="black" fill-opacity="0.10"/><circle cx="270.9" cy="1172.5" r="0.34" fill="black" fill-opacity="0.07"/><circle cx="991.0" cy="493.1" r="1.15" fill="black" fill-opacity="0.08"/><circle cx="699.3" cy="210.9" r="0.83" fill="black" fill-opacity="0.05"/><circle cx="826.4" cy="176.4" r="0.98" fill="black" fill-opacity="0.07"/><circle cx="738.8" cy="306.7" r="0.40" fill="black" fill-opacity="0.09"/><circle cx="615.4" cy="347.7" r="0.23" fill="black" fill-opacity="0.09"/><circle cx="662.6" cy="274.8" r="0.75" fill="black" fill-opacity="0.03"/><circle cx="865.4" cy="579.8" r="1.40" fill="black" fill-opacity="0.09"/><circle cx="773.3" cy="760.1" r="1.10" fill="black" fill-opacity="0.05"/><circle cx="766.1" cy="982.6" r="1.13" fill="black" fill-opacity="0.06"/><circle cx="194.7" cy="121.3" r="1.45" fill="black" fill-opacity="0.09"/><circle cx="324.1" cy="747.4" r="0.33" fill="black" fill-opacity="0.08"/><circle cx="103.8" cy="563.5" r="0.47" fill="black" fill-opacity="0.06"/><circle cx="874.2" cy="475.7" r="0.98" fill="black" fill-opacity="0.07"/><circle cx="805.6" cy="304.0" r="1.37" fill="black" fill-opacity="0.06"/><circle cx="659.6" cy="657.7" r="0.94" fill="black" fill-opacity="0.04"/><circle cx="614.1" cy="438.9" r="1.14" fill="black" fill-opacity="0.05"/><circle cx="256.8" cy="977.8" r="0.49" fill="black" fill-opacity="0.02"/><circle cx="411.6" cy="1239.9" r="0.23" fill="black" fill-opacity="0.05"/><circle cx="590.9" cy="871.4" r="1.36" fill="black" fill-opacity="0.02"/><circle cx="378.3" cy="343.6" r="1.53" fill="black" fill-opacity="0.05"/><circle cx="870.3" cy="682.4" r="1.56" fill="black" fill-opacity="0.08"/><circle cx="931.7" cy="394.9" r="1.42" fill="black" fill-opacity="0.03"/><circle cx="158.0" cy="710.0" r="0.51" fill="black" fill-opacity="0.02"/><circle cx="992.8" cy="36.6" r="1.45" fill="black" fill-opacity="0.06"/><circle cx="497.8" cy="48.9" r="0.22" fill="black" fill-opacity="0.08"/><circle cx="951.4" cy="327.6" r="0.28" fill="black" fill-opacity="0.08"/><circle cx="169.3" cy="1121.6" r="1.39" fill="black" fill-opacity="0.10"/><circle cx="341.4" cy="582.3" r="0.67" fill="black" fill-opacity="0.07"/><circle cx="913.8" cy="318.7" r="1.52" fill="black" fill-opacity="0.04"/><circle cx="687.6" cy="130.7" r="1.28" fill="black" fill-opacity="0.03"/><circle cx="547.4" cy="163.4" r="1.52" fill="black" fill-opacity="0.03"/><circle cx="770.7" cy="909.4" r="0.60" fill="black" fill-opacity="0.04"/><circle cx="401.6" cy="351.5" r="1.16" fill="black" fill-opacity="0.04"/><circle cx="628.8" cy="613.2" r="1.58" fill="black" fill-opacity="0.09"/><circle cx="107.5" cy="375.0" r="0.43" fill="black" fill-opacity="0.10"/><circle cx="796.2" cy="891.8" r="1.53" fill="black" fill-opacity="0.06"/><circle cx="415.8" cy="434.9" r="1.22" fill="black" fill-opacity="0.07"/><circle cx="958.0" cy="240.5" r="1.20" fill="black" fill-opacity="0.04"/><circle cx="585.3" cy="679.0" r="0.51" fill="black" fill-opacity="0.04"/><circle cx="655.4" cy="1012.3" r="1.26" fill="black" fill-opacity="0.07"/><circle cx="739.9" cy="723.5" r="0.70" fill="black" fill-opacity="0.08"/><circle cx="784.7" cy="673.6" r="0.32" fill="black" fill-opacity="0.09"/>
</svg>
